<svg width="24" height="24" viewBox="0 0 24 24" fill="none" xmlns="http://www.w3.org/2000/svg">
<g clip-path="url(#clip0_13_10848)">
<path d="M14 2C15.83 1.99913 17.6049 2.62567 19.0289 3.77513C20.4528 4.92458 21.4396 6.52748 21.8247 8.31647C22.2098 10.1055 21.9699 11.9724 21.1451 13.6059C20.3202 15.2395 18.9603 16.5408 17.292 17.293C16.7588 18.4719 15.9475 19.5039 14.9279 20.3004C13.9082 21.097 12.7106 21.6343 11.4376 21.8663C10.1647 22.0984 8.8545 22.0182 7.61937 21.6327C6.38423 21.2472 5.26104 20.5678 4.34611 19.6529C3.43119 18.738 2.75184 17.6148 2.36632 16.3796C1.9808 15.1445 1.90062 13.8343 2.13266 12.5614C2.3647 11.2884 2.90203 10.0908 3.69857 9.07114C4.49511 8.05148 5.52709 7.24024 6.706 6.707C7.34015 5.30389 8.36559 4.1135 9.65935 3.27861C10.9531 2.44371 12.4602 1.99976 14 2ZM10 8C9.21207 8 8.43186 8.1552 7.7039 8.45672C6.97595 8.75825 6.31451 9.20021 5.75736 9.75736C5.20021 10.3145 4.75825 10.9759 4.45673 11.7039C4.1552 12.4319 4 13.2121 4 14C4 14.7879 4.1552 15.5681 4.45673 16.2961C4.75825 17.0241 5.20021 17.6855 5.75736 18.2426C6.31451 18.7998 6.97595 19.2417 7.7039 19.5433C8.43186 19.8448 9.21207 20 10 20C11.5913 20 13.1174 19.3679 14.2426 18.2426C15.3679 17.1174 16 15.5913 16 14C16 12.4087 15.3679 10.8826 14.2426 9.75736C13.1174 8.63214 11.5913 8 10 8ZM11 9V10H13V12H9C8.87506 11.9998 8.75455 12.0463 8.66222 12.1305C8.56989 12.2147 8.51242 12.3304 8.50113 12.4548C8.48984 12.5793 8.52555 12.7034 8.60122 12.8028C8.6769 12.9023 8.78706 12.9697 8.91 12.992L9 13H11C11.663 13 12.2989 13.2634 12.7678 13.7322C13.2366 14.2011 13.5 14.837 13.5 15.5C13.5 16.163 13.2366 16.7989 12.7678 17.2678C12.2989 17.7366 11.663 18 11 18V19H9V18H7V16H11C11.1249 16.0002 11.2455 15.9537 11.3378 15.8695C11.4301 15.7853 11.4876 15.6696 11.4989 15.5452C11.5102 15.4207 11.4745 15.2966 11.3988 15.1972C11.3231 15.0977 11.2129 15.0303 11.09 15.008L11 15H9C8.33696 15 7.70108 14.7366 7.23224 14.2678C6.76339 13.7989 6.5 13.163 6.5 12.5C6.5 11.837 6.76339 11.2011 7.23224 10.7322C7.70108 10.2634 8.33696 10 9 10V9H11ZM14 4C13.1527 3.99901 12.3148 4.17794 11.5418 4.52496C10.7688 4.87198 10.0783 5.37918 9.516 6.013C10.6463 5.94439 11.7782 6.1165 12.837 6.51795C13.8958 6.9194 14.8573 7.54105 15.6579 8.34178C16.4586 9.14252 17.0801 10.1041 17.4814 11.1629C17.8828 12.2218 18.0547 13.3537 17.986 14.484C18.8952 13.6756 19.5372 12.6099 19.8268 11.4283C20.1164 10.2467 20.04 9.00492 19.6076 7.86772C19.1753 6.73053 18.4074 5.75164 17.4059 5.06088C16.4044 4.37013 15.2166 4.00014 14 4Z" fill="#0B0B0B"/>
</g>
<defs>
<clipPath id="clip0_13_10848">
<rect width="24" height="24" fill="white"/>
</clipPath>
</defs>
</svg>
