<svg width="26" height="26" viewBox="0 0 26 26" fill="none" xmlns="http://www.w3.org/2000/svg">
<g clip-path="url(#clip0_222_2)">
<path opacity="0.4" d="M10.5512 3.24653C11.5105 3.24653 12.4603 3.43548 13.3466 3.80257C14.2329 4.16967 15.0382 4.70773 15.7164 5.38604C16.3947 6.06434 16.9328 6.86961 17.2999 7.75584C17.667 8.64209 17.8559 9.59196 17.8559 10.5512C17.8559 11.5105 17.667 12.4603 17.2999 13.3466C16.9328 14.2329 16.3947 15.0382 15.7164 15.7164C15.0382 16.3947 14.2329 16.9328 13.3466 17.2999C12.4603 17.667 11.5105 17.8559 10.5512 17.8559C9.59196 17.8559 8.64209 17.667 7.75584 17.2999C6.86961 16.9328 6.06434 16.3947 5.38604 15.7164C4.70773 15.0382 4.16967 14.2329 3.80257 13.3466C3.43548 12.4603 3.24653 11.5105 3.24653 10.5512C3.24653 9.59196 3.43548 8.64209 3.80257 7.75584C4.16967 6.86961 4.70773 6.06434 5.38604 5.38604C6.06434 4.70773 6.86961 4.16967 7.75584 3.80257C8.64209 3.43548 9.59196 3.24653 10.5512 3.24653ZM10.5512 21.1025C13.3496 21.1025 16.0333 19.9908 18.0121 18.0121C19.9908 16.0333 21.1025 13.3496 21.1025 10.5512C21.1025 7.75287 19.9908 5.06913 18.0121 3.09038C16.0333 1.11164 13.3496 0 10.5512 0C7.75287 0 5.06913 1.11164 3.09038 3.09038C1.11164 5.06913 0 7.75287 0 10.5512C0 13.3496 1.11164 16.0333 3.09038 18.0121C5.06913 19.9908 7.75287 21.1025 10.5512 21.1025Z" fill="#3F4C5E"/>
<path d="M16.7754 19.0733L23.2026 25.4955C23.8367 26.1295 24.8664 26.1295 25.5005 25.4955C26.1346 24.8614 26.1346 23.8316 25.5005 23.1975L19.0733 16.7754C18.4291 17.6531 17.6531 18.4291 16.7754 19.0733Z" fill="#3F4C5E"/>
</g>
<defs>
<clipPath id="clip0_222_2">
<rect width="26" height="26" fill="white"/>
</clipPath>
</defs>
</svg>
