<svg width="29" height="32" viewBox="0 0 29 32" fill="none" xmlns="http://www.w3.org/2000/svg">
<mask id="mask0_216_25" style="mask-type:luminance" maskUnits="userSpaceOnUse" x="2" y="3" width="26" height="25">
<path d="M27.5 3H2.5V28H27.5V3Z" fill="white"/>
</mask>
<g mask="url(#mask0_216_25)">
<path opacity="0.4" d="M2.48438 9.25V21.75C2.48438 24.3379 4.58399 26.4375 7.17188 26.4375H10.2969C11.1611 26.4375 11.8594 25.7393 11.8594 24.875C11.8594 24.0107 11.1611 23.3125 10.2969 23.3125H7.17188C6.30761 23.3125 5.60937 22.6143 5.60937 21.75V9.25C5.60937 8.38574 6.30761 7.6875 7.17188 7.6875H10.2969C11.1611 7.6875 11.8594 6.98926 11.8594 6.125C11.8594 5.26074 11.1611 4.5625 10.2969 4.5625H7.17188C4.58399 4.5625 2.48438 6.66211 2.48438 9.25Z" fill="#3F4C5E"/>
<path d="M26.9336 14.167L20.9424 8.1709C20.6299 7.8584 20.2099 7.6875 19.7705 7.6875C18.8574 7.6875 18.1153 8.42969 18.1153 9.34277V12.375H11.8653C11.001 12.375 10.3027 13.0732 10.3027 13.9375V17.0625C10.3027 17.9268 11.001 18.625 11.8653 18.625H18.1153V21.6573C18.1153 22.5703 18.8574 23.3125 19.7705 23.3125C20.2099 23.3125 20.6299 23.1367 20.9424 22.8291L26.9336 16.833C27.2852 16.4814 27.4853 15.998 27.4853 15.5C27.4853 15.002 27.2852 14.5185 26.9336 14.167Z" fill="#3F4C5E"/>
</g>
</svg>
