<svg width="35" height="30" viewBox="0 0 35 30" fill="none" xmlns="http://www.w3.org/2000/svg">
<g clip-path="url(#clip0_216_9)">
<path opacity="0.4" d="M4.27778 1.875C2.1941 1.875 0.5 3.55664 0.5 5.625V7.5H34.5V5.625C34.5 3.55664 32.8059 1.875 30.7222 1.875H4.27778ZM34.5 13.125H0.5V24.375C0.5 26.4434 2.1941 28.125 4.27778 28.125H30.7222C32.8059 28.125 34.5 26.4434 34.5 24.375V13.125ZM7.11111 20.625H10.8889C11.4083 20.625 11.8333 21.0469 11.8333 21.5625C11.8333 22.0781 11.4083 22.5 10.8889 22.5H7.11111C6.59167 22.5 6.16667 22.0781 6.16667 21.5625C6.16667 21.0469 6.59167 20.625 7.11111 20.625ZM13.7222 21.5625C13.7222 21.0469 14.1472 20.625 14.6667 20.625H22.2222C22.7417 20.625 23.1667 21.0469 23.1667 21.5625C23.1667 22.0781 22.7417 22.5 22.2222 22.5H14.6667C14.1472 22.5 13.7222 22.0781 13.7222 21.5625Z" fill="#3F4C5E"/>
<path d="M34.5 13.125H0.5V7.5H34.5V13.125Z" fill="#3F4C5E"/>
</g>
<defs>
<clipPath id="clip0_216_9">
<rect width="34" height="30" fill="white" transform="translate(0.5)"/>
</clipPath>
</defs>
</svg>
