<svg width="29" height="32" viewBox="0 0 29 32" fill="none" xmlns="http://www.w3.org/2000/svg">
<g clip-path="url(#clip0_218_39)">
<path opacity="0.4" d="M0 24C0 24.275 0.0582589 24.5563 0.18125 24.8188C0.517857 25.5375 1.2558 26 2.07143 26H26.9286C27.7442 26 28.4821 25.5375 28.8188 24.8188C28.9417 24.5563 29 24.275 29 24C29 23.5188 28.8187 23.0438 28.4757 22.6688L27.9967 22.15C25.977 19.95 24.8571 17.1188 24.8571 14.175V13C24.8571 8.1625 21.2969 4.125 16.5714 3.2V2C16.5714 0.89375 15.6458 0 14.5 0C13.3542 0 12.4286 0.89375 12.4286 2V3.2C7.70312 4.125 4.14286 8.1625 4.14286 13V14.175C4.14286 17.1125 3.02299 19.95 1.00335 22.15L0.52433 22.6688C0.18125 23.0438 0 23.5188 0 24Z" fill="#3F4C5E"/>
<path d="M18.6431 28C18.6431 29.0625 18.2094 30.0812 17.4326 30.8312C16.6559 31.5812 15.6007 32 14.5003 32C13.3998 32 12.3447 31.5812 11.5679 30.8312C10.7911 30.0812 10.3574 29.0625 10.3574 28H14.5003H18.6431Z" fill="#3F4C5E"/>
</g>
<defs>
<clipPath id="clip0_218_39">
<rect width="29" height="32" fill="white"/>
</clipPath>
</defs>
</svg>
