<svg width="23" height="31" viewBox="0 0 23 31" fill="none" xmlns="http://www.w3.org/2000/svg">
<g clip-path="url(#clip0_216_19)">
<mask id="mask0_216_19" style="mask-type:luminance" maskUnits="userSpaceOnUse" x="0" y="0" width="23" height="31">
<path d="M22.5 0H0.5V31H22.5V0Z" fill="white"/>
</mask>
<g mask="url(#mask0_216_19)">
<path d="M11.7196 16.0836C10.6949 17.1533 10.3418 18.5151 10.0531 20.0727C9.92551 20.8188 9.8933 21.6289 9.86108 22.4076C9.82887 23.1211 9.477 23.5425 8.8364 23.6403C8.29122 23.7055 7.20214 22.9593 7.01009 22.4402C6.85025 22.4728 5.6645 24.5155 6.91344 28.245C7.29753 29.3472 8.1946 30.0282 9.22049 30.5147C9.34811 30.5799 9.44475 30.7417 9.54139 30.8708C9.38156 30.9034 9.22049 31 9.09285 31C4.44761 30.2539 1.0505 27.174 0.570912 22.3423C0.1546 18.1263 1.59559 14.2679 4.25571 11.0576C5.56906 9.46881 6.85146 8.04176 7.87611 6.25863C8.70874 4.79897 9.38153 3.30797 9.60578 1.62143C9.63799 1.2327 9.7334 0.161764 9.76562 0C9.92545 0.0652065 12.2003 2.46412 12.9375 3.76209C14.5718 6.71275 14.9237 8.43203 14.8915 11.7713C14.8915 11.9657 14.8593 12.1927 14.8915 12.3871C14.9237 13.3276 15.532 14.5276 16.75 14.6568C17.6471 14.7546 18.4165 14.3646 18.7362 13.4893C19.1525 12.3871 19.3767 10.8309 19.4412 10.7004C22.1001 14.8513 23.67 20.266 21.4273 25.292C20.114 28.21 17.5183 30.091 14.4108 30.8698C14.3154 30.9024 14.2187 30.935 14.1221 30.935C14.0254 30.9024 13.93 30.8372 13.8012 30.8058C13.8656 30.708 13.8978 30.6114 13.961 30.5136C13.9932 30.481 14.0254 30.481 14.0577 30.4484C16.0438 29.5405 16.8132 27.563 16.6534 25.5191C16.5258 23.9303 15.884 22.601 14.9237 21.3682C14.2187 20.4929 13.225 19.585 12.6489 18.6119C12.2326 17.8019 12.0083 16.9263 11.7196 16.0836Z" fill="#3F4C5E"/>
</g>
</g>
<defs>
<clipPath id="clip0_216_19">
<rect width="22" height="31" fill="white" transform="translate(0.5)"/>
</clipPath>
</defs>
</svg>
