<svg width="24" height="26" viewBox="0 0 24 26" fill="none" xmlns="http://www.w3.org/2000/svg">
<path d="M14.0206 24.9999C13.8134 24.9999 13.6163 24.8894 13.5057 24.7023C13.3709 24.474 13.3931 24.1826 13.561 23.979L14.3454 23.0284C14.8271 22.4456 15.1338 21.6334 15.2093 20.7417C15.347 19.1205 14.3505 17.7029 13.39 16.7326C13.1085 17.9054 12.3844 18.731 11.8595 19.3282C11.7358 19.4698 11.6312 19.5886 11.5346 19.7064C10.719 20.7046 10.2504 21.5023 11.1394 23.419L11.4501 24.0917C11.5447 24.2952 11.5236 24.535 11.3958 24.7179C11.2681 24.9007 11.0529 25.001 10.8377 24.9741L10.1176 24.8904C8.46434 24.6993 6.98194 23.9656 5.82961 22.768C4.64999 21.5426 3.98323 19.9628 4.00032 18.4333C4.01641 16.9123 4.53231 15.7696 4.98686 14.7609C5.56009 13.4921 5.9382 12.6551 5.26845 11.502L4.81591 10.7229C4.69523 10.5142 4.70429 10.2528 4.83804 10.0523C4.97279 9.85288 5.20711 9.75162 5.44144 9.79501L6.31032 9.95621C7.56939 10.1897 8.63941 11.0567 9.28202 12.2935C9.42282 11.689 9.49019 10.8851 9.3665 9.84048C9.06984 7.31926 9.20358 4.09954 12.9105 1.56171L13.5793 1.10395C13.7693 0.973759 14.0137 0.965492 14.2128 1.08122C14.4109 1.19798 14.5286 1.4191 14.5165 1.65368L14.4723 2.47825C14.3235 5.28351 15.0314 7.30473 16.918 9.45292C18.5311 11.2901 20.1974 13.1893 20.7988 16.0588C21.2745 18.3321 20.9034 20.3729 19.7217 21.9601C18.7301 23.293 17.1724 24.2674 15.3351 24.7034L14.1535 24.9835C14.1112 24.9948 14.0658 24.9999 14.0206 24.9999ZM6.52348 11.2923C7.19727 12.8134 6.63209 14.0667 6.08301 15.2829C5.63951 16.2656 5.22015 17.1935 5.2071 18.448C5.19403 19.6486 5.73306 20.9051 6.68742 21.8971C7.56032 22.8033 8.66453 23.3902 9.89752 23.6072C8.9341 21.2647 9.7165 20.0009 10.6105 18.9087C10.7151 18.7806 10.8287 18.6514 10.9454 18.5181C11.6272 17.7411 12.3815 16.8824 12.293 15.5049C12.2779 15.2611 12.4026 15.0306 12.6138 14.9159C12.824 14.8023 13.0804 14.825 13.2675 14.9769C14.5396 16.004 16.6405 18.1327 16.4091 20.849C16.3306 21.7718 16.0521 22.6377 15.6116 23.3455C16.934 22.928 18.0392 22.181 18.7633 21.2086C19.7227 19.9191 20.0183 18.2285 19.6181 16.3211C19.0851 13.775 17.5273 12.0009 16.0208 10.2846C13.9904 7.9711 13.1719 5.78564 13.2501 2.82933C10.4352 4.92279 10.2895 7.3614 10.5639 9.69237C10.8495 12.1186 10.2552 13.5454 9.70611 14.3162C9.56431 14.5146 9.32195 14.6066 9.08965 14.5549C8.85634 14.5022 8.67532 14.3121 8.62805 14.0713C8.42591 13.0246 7.75616 11.7392 6.52322 11.2917L6.52348 11.2923Z" fill="black" stroke="black" stroke-width="0.5"/>
</svg>
