<svg width="30" height="29" viewBox="0 0 30 29" fill="none" xmlns="http://www.w3.org/2000/svg">
<g clip-path="url(#clip0_216_12)">
<mask id="mask0_216_12" style="mask-type:luminance" maskUnits="userSpaceOnUse" x="0" y="0" width="30" height="29">
<path d="M29.5 0H0.5V29H29.5V0Z" fill="white"/>
</mask>
<g mask="url(#mask0_216_12)">
<path opacity="0.4" d="M12.6607 9.60059C13.3687 9.26074 14.1617 9.0625 15 9.0625C15.8383 9.0625 16.6312 9.26074 17.3393 9.60059C17.3449 9.59492 17.3336 9.60625 17.3393 9.60059L23.8812 3.05293C21.4287 1.1498 18.3531 0 15 0C11.6469 0 8.57129 1.1498 6.11875 3.05293L12.6607 9.60059C12.6664 9.60625 12.6551 9.59492 12.6607 9.60059ZM10.1006 16.8393C9.76074 16.1312 9.5625 15.3383 9.5625 14.5C9.5625 13.6617 9.76074 12.8687 10.1006 12.1607C10.1062 12.1664 10.0949 12.1551 10.1006 12.1607L3.55293 5.61875C1.6498 8.07129 0.5 11.1469 0.5 14.5C0.5 17.8531 1.6498 20.9287 3.55293 23.3812L10.1006 16.8393C10.1062 16.8336 10.0949 16.8449 10.1006 16.8393ZM26.4471 5.61875L19.8994 12.1607C19.9051 12.1551 19.8937 12.1664 19.8994 12.1607C20.2393 12.8687 20.4375 13.6617 20.4375 14.5C20.4375 15.3383 20.2393 16.1312 19.8994 16.8393C19.9051 16.8449 19.8937 16.8336 19.8994 16.8393L26.4471 23.3812C28.3502 20.9287 29.5 17.8531 29.5 14.5C29.5 11.1469 28.3502 8.07129 26.4471 5.61875ZM17.3393 19.3994C16.6312 19.7393 15.8383 19.9375 15 19.9375C14.1617 19.9375 13.3687 19.7393 12.6607 19.3994C12.6664 19.3937 12.6551 19.4051 12.6607 19.3994L6.11875 25.9471C8.57129 27.8502 11.6469 29 15 29C18.3531 29 21.4287 27.8502 23.8812 25.9471L17.3393 19.3994C17.3449 19.4051 17.3336 19.3937 17.3393 19.3994Z" fill="#3F4C5E"/>
<path d="M3.75171 3.25122C3.0437 3.95923 3.0437 5.10903 3.75171 5.81704L10.0955 12.1608C10.6335 11.0393 11.5398 10.1331 12.6613 9.59497L6.31753 3.25122C5.60952 2.54321 4.45972 2.54321 3.75171 3.25122ZM10.0955 16.845L3.75171 23.1887C3.0437 23.8967 3.0437 25.0465 3.75171 25.7545C4.45972 26.4625 5.60952 26.4625 6.31753 25.7545L12.6613 19.4108C11.5398 18.8727 10.6335 17.9665 10.0955 16.845ZM17.3455 19.4108L23.6892 25.7545C24.3972 26.4625 25.547 26.4625 26.255 25.7545C26.963 25.0465 26.963 23.8967 26.255 23.1887L19.9113 16.845C19.3732 17.9665 18.4669 18.8727 17.3455 19.4108ZM19.9113 12.1608L26.255 5.81704C26.963 5.10903 26.963 3.95923 26.255 3.25122C25.547 2.54321 24.3972 2.54321 23.6892 3.25122L17.3455 9.59497C18.4669 10.1331 19.3732 11.0393 19.9113 12.1608Z" fill="#3F4C5E"/>
</g>
</g>
<defs>
<clipPath id="clip0_216_12">
<rect width="29" height="29" fill="white" transform="translate(0.5)"/>
</clipPath>
</defs>
</svg>
