<svg width="24" height="30" viewBox="0 0 24 30" fill="none" xmlns="http://www.w3.org/2000/svg">
<g clip-path="url(#clip0_216_32)">
<mask id="mask0_216_32" style="mask-type:luminance" maskUnits="userSpaceOnUse" x="0" y="0" width="24" height="30">
<path d="M23.5 0H0.5V30H23.5V0Z" fill="white"/>
</mask>
<g mask="url(#mask0_216_32)">
<path d="M13.1715 29.3259C16.1851 25.5544 23.0584 16.4136 23.0584 11.2792C23.0584 5.05214 18.0062 0 11.7792 0C5.55214 0 0.5 5.05214 0.5 11.2792C0.5 16.4136 7.37326 25.5544 10.3869 29.3259C11.1095 30.2247 12.4489 30.2247 13.1715 29.3259ZM11.7792 6.57953C13.0256 6.57953 14.221 7.07467 15.1024 7.95603C15.9837 8.83738 16.4789 10.0328 16.4789 11.2792C16.4789 12.5256 15.9837 13.721 15.1024 14.6024C14.221 15.4837 13.0256 15.9789 11.7792 15.9789C10.5328 15.9789 9.33738 15.4837 8.45603 14.6024C7.57467 13.721 7.07953 12.5256 7.07953 11.2792C7.07953 10.0328 7.57467 8.83738 8.45603 7.95603C9.33738 7.07467 10.5328 6.57953 11.7792 6.57953Z" fill="#3F4C5E"/>
<path d="M11.7788 8.45947C11.0309 8.45947 10.3137 8.75656 9.78488 9.28537C9.25607 9.81418 8.95898 10.5314 8.95898 11.2792C8.95898 12.0271 9.25607 12.7443 9.78488 13.2731C10.3137 13.802 11.0309 14.099 11.7788 14.099C12.5266 14.099 13.2439 13.802 13.7727 13.2731C14.3015 12.7443 14.5986 12.0271 14.5986 11.2792C14.5986 10.5314 14.3015 9.81418 13.7727 9.28537C13.2439 8.75656 12.5266 8.45947 11.7788 8.45947Z" fill="#3F4C5E"/>
</g>
</g>
<defs>
<clipPath id="clip0_216_32">
<rect width="23" height="30" fill="white" transform="translate(0.5)"/>
</clipPath>
</defs>
</svg>
