<svg width="29" height="32" viewBox="0 0 29 32" fill="none" xmlns="http://www.w3.org/2000/svg">
<g clip-path="url(#clip0_216_2)">
<mask id="mask0_216_2" style="mask-type:luminance" maskUnits="userSpaceOnUse" x="0" y="0" width="29" height="32">
<path d="M28.5 0H0.5V32H28.5V0Z" fill="white"/>
</mask>
<g mask="url(#mask0_216_2)">
<path opacity="0.4" d="M0.5 11.7324H27.875V28.3529C27.875 29.9722 26.5612 31.2859 24.942 31.2859H3.43304C1.81376 31.2859 0.5 29.9722 0.5 28.3529V11.7324ZM4.41071 16.6208V18.5761C4.41071 19.1139 4.85067 19.5538 5.38839 19.5538H7.34375C7.88147 19.5538 8.32143 19.1139 8.32143 18.5761V16.6208C8.32143 16.083 7.88147 15.6431 7.34375 15.6431H5.38839C4.85067 15.6431 4.41071 16.083 4.41071 16.6208ZM13.2098 15.6431C12.6721 15.6431 12.2321 16.083 12.2321 16.6208V18.5761C12.2321 19.1139 12.6721 19.5538 13.2098 19.5538H15.1652C15.7029 19.5538 16.1429 19.1139 16.1429 18.5761V16.6208C16.1429 16.083 15.7029 15.6431 15.1652 15.6431H13.2098ZM20.0536 16.6208V18.5761C20.0536 19.1139 20.4935 19.5538 21.0312 19.5538H22.9866C23.5243 19.5538 23.9643 19.1139 23.9643 18.5761V16.6208C23.9643 16.083 23.5243 15.6431 22.9866 15.6431H21.0312C20.4935 15.6431 20.0536 16.083 20.0536 16.6208ZM5.38839 23.4645C4.85067 23.4645 4.41071 23.9045 4.41071 24.4422V26.3976C4.41071 26.9353 4.85067 27.3752 5.38839 27.3752H7.34375C7.88147 27.3752 8.32143 26.9353 8.32143 26.3976V24.4422C8.32143 23.9045 7.88147 23.4645 7.34375 23.4645H5.38839ZM12.2321 24.4422V26.3976C12.2321 26.9353 12.6721 27.3752 13.2098 27.3752H15.1652C15.7029 27.3752 16.1429 26.9353 16.1429 26.3976V24.4422C16.1429 23.9045 15.7029 23.4645 15.1652 23.4645H13.2098C12.6721 23.4645 12.2321 23.9045 12.2321 24.4422ZM21.0312 23.4645C20.4935 23.4645 20.0536 23.9045 20.0536 24.4422V26.3976C20.0536 26.9353 20.4935 27.3752 21.0312 27.3752H22.9866C23.5243 27.3752 23.9643 26.9353 23.9643 26.3976V24.4422C23.9643 23.9045 23.5243 23.4645 22.9866 23.4645H21.0312Z" fill="#3F4C5E"/>
<path d="M10.2768 1.95536C10.2768 0.8738 9.40299 0 8.32143 0C7.23987 0 6.36607 0.8738 6.36607 1.95536V3.91071H3.43304C1.81376 3.91071 0.5 5.22447 0.5 6.84375V11.7321H27.875V6.84375C27.875 5.22447 26.5612 3.91071 24.942 3.91071H22.0089V1.95536C22.0089 0.8738 21.1351 0 20.0536 0C18.972 0 18.0982 0.8738 18.0982 1.95536V3.91071H10.2768V1.95536Z" fill="#3F4C5E"/>
</g>
</g>
<defs>
<clipPath id="clip0_216_2">
<rect width="28" height="32" fill="white" transform="translate(0.5)"/>
</clipPath>
</defs>
</svg>
