<svg width="186" height="186" viewBox="0 0 186 186" fill="none" xmlns="http://www.w3.org/2000/svg">
<rect width="186" height="186" rx="20" fill="#E0E0E0"/>
<path opacity="0.4" d="M75.0703 75.2855C75.0703 70.6632 76.9065 66.2301 80.175 62.9616C83.4435 59.6932 87.8765 57.8569 92.4989 57.8569C97.1212 57.8569 101.554 59.6932 104.823 62.9616C108.091 66.2301 109.927 70.6632 109.927 75.2855C109.927 79.9079 108.091 84.3409 104.823 87.6094C101.554 90.8779 97.1212 92.7141 92.4989 92.7141C87.8765 92.7141 83.4435 90.8779 80.175 87.6094C76.9065 84.3409 75.0703 79.9079 75.0703 75.2855Z" fill="#B1B1B1"/>
<path d="M62 123.527C62 110.115 72.8656 99.2495 86.2775 99.2495H98.7225C112.134 99.2495 123 110.115 123 123.527C123 125.76 121.189 127.571 118.956 127.571H66.044C63.8109 127.571 62 125.76 62 123.527Z" fill="#B1B1B1"/>
</svg>
