<svg width="183" height="67" viewBox="0 0 183 67" fill="none" xmlns="http://www.w3.org/2000/svg">
<path d="M77.9717 30.5146C81.7197 30.5146 84.765 33.4818 84.765 37.0736V51.8314C84.765 55.2671 81.8759 58.0781 78.284 58.0781H72.7401C69.2264 58.0781 66.2592 55.2671 66.3373 51.8314V41.134H73.1305V52.0657H77.9717V39.0257C77.9717 37.9326 77.0347 37.0736 75.9415 37.0736H73.8333C69.6949 37.0736 66.3373 33.8722 66.3373 29.89V14.7418C66.3373 11.3061 69.2264 8.49511 72.7401 8.49511H78.284C81.8759 8.49511 84.765 11.3061 84.765 14.7418V25.3611H77.9717V14.5075H73.1305V28.4845C73.1305 29.5776 74.0675 30.5146 75.2388 30.5146H77.9717ZM103.318 14.4294H94.0258V30.2804H102.146V36.2147H94.0258V51.9876H103.318V58H91.0586H87.5448V8.49511H91.0586H103.318V14.4294ZM120.932 14.4294H111.64V30.2804H119.761V36.2147H111.64V51.9876H120.932V58H108.673H105.159V8.49511H108.673H120.932V14.4294ZM141.67 27.079C141.67 29.5776 140.187 31.764 138 32.701V33.7941C140.187 34.8092 141.67 36.9956 141.67 39.4942V58.0781H134.643V39.26H129.645V58.0781H122.618V39.4942C122.618 36.9956 124.101 34.8092 126.21 33.7941V32.701C124.101 31.764 122.618 29.5776 122.618 27.079V8.49511H129.567V27.3132H134.643V8.49511H141.67V27.079Z" fill="#E74C3C"/>
<path d="M162.719 15.0019H153.271V30.7748H161.548V36.7872H153.271V58.5725H146.79V8.98949H162.719V15.0019ZM175.5 8.98949H182.527L175.734 43.4243V58.5725H168.863V43.4243L162.148 8.98949H169.019L172.298 28.9008H172.689L175.5 8.98949Z" fill="#423B3B"/>
<path d="M23.145 34.594C21.0311 36.7863 20.3027 39.5776 19.7072 42.7699C19.4439 44.2992 19.3774 45.9595 19.311 47.5556C19.2445 49.018 18.5187 49.8816 17.1972 50.082C16.0725 50.2157 13.8259 48.6864 13.4297 47.6224C13.0999 47.6892 10.6539 51.876 13.2303 59.5198C14.0226 61.779 15.8732 63.1746 17.9895 64.1718C18.2528 64.3055 18.4521 64.637 18.6515 64.9018C18.3218 64.9686 17.9895 65.1665 17.7262 65.1665C8.14352 63.6372 1.13563 57.3248 0.146284 47.4217C-0.712525 38.7806 2.2601 30.8725 7.74765 24.2928C10.457 21.0363 13.1024 18.1115 15.2162 14.4568C16.9338 11.4651 18.3217 8.40913 18.7843 4.95242C18.8508 4.15569 19.0476 1.9607 19.114 1.62915C19.4438 1.7628 24.1366 6.67959 25.6574 9.33989C29.0287 15.3876 29.7546 18.9114 29.6882 25.7556C29.6882 26.1539 29.6217 26.6192 29.6882 27.0176C29.7546 28.9452 31.0096 31.4049 33.5222 31.6696C35.3727 31.8701 36.9599 31.0707 37.6194 29.2768C38.4782 27.0176 38.9408 23.828 39.0738 23.5606C44.5589 32.0682 47.7973 43.1662 43.171 53.4673C40.4617 59.4481 35.107 63.3033 28.6965 64.8995C28.4997 64.9664 28.3004 65.0332 28.101 65.0332C27.9016 64.9664 27.7048 64.8327 27.439 64.7685C27.5719 64.568 27.6384 64.3701 27.7687 64.1696C27.8352 64.1028 27.9016 64.1028 27.9681 64.036C32.0653 62.1752 33.6526 58.1219 33.3229 53.9328C33.0596 50.6764 31.7356 47.952 29.7547 45.4253C28.3004 43.6313 26.2505 41.7705 25.0619 39.776C24.2031 38.1157 23.7405 36.3211 23.145 34.594Z" fill="#E74C3C"/>
</svg>
