<svg width="160" height="53" viewBox="0 0 160 53" fill="none" xmlns="http://www.w3.org/2000/svg">
<path d="M128.318 40.9094V10.5132H142.691C146.049 10.5132 149.002 11.1356 151.55 12.3804C154.097 13.6252 156.08 15.3766 157.499 17.6346C158.946 19.8926 159.67 22.5848 159.67 25.7113C159.67 28.8088 158.946 31.501 157.499 33.788C156.08 36.046 154.097 37.7974 151.55 39.0422C149.002 40.287 146.049 40.9094 142.691 40.9094H128.318ZM136.916 34.0485H142.344C144.081 34.0485 145.586 33.7301 146.86 33.0932C148.163 32.4274 149.176 31.4721 149.9 30.2273C150.623 28.9535 150.985 27.4482 150.985 25.7113C150.985 23.9454 150.623 22.4401 149.9 21.1953C149.176 19.9505 148.163 19.0096 146.86 18.3728C145.586 17.7069 144.081 17.374 142.344 17.374H136.916V34.0485Z" fill="black"/>
<path d="M107.046 22.2808H121.158V28.7075H107.046V22.2808ZM107.654 34.2656H123.546V40.9094H99.1426V10.5132H122.982V17.1569H107.654V34.2656Z" fill="black"/>
<path d="M67 40.9094V10.5132H80.8954C83.6745 10.5132 86.0627 10.9619 88.0602 11.8593C90.0866 12.7567 91.6499 14.0594 92.7499 15.7674C93.85 17.4464 94.4 19.4439 94.4 21.7598C94.4 24.0467 93.85 26.0297 92.7499 27.7087C91.6499 29.3588 90.0866 30.6326 88.0602 31.53C86.0627 32.3984 83.6745 32.8327 80.8954 32.8327H71.7765L75.5978 29.2285V40.9094H67ZM85.8022 40.9094L78.2466 29.8365H87.4089L95.0079 40.9094H85.8022ZM75.5978 30.1404L71.7765 26.1889H80.3743C82.1691 26.1889 83.5008 25.7981 84.3692 25.0165C85.2667 24.2349 85.7154 23.1493 85.7154 21.7598C85.7154 20.3413 85.2667 19.2412 84.3692 18.4596C83.5008 17.678 82.1691 17.2872 80.3743 17.2872H71.7765L75.5978 13.3357V30.1404Z" fill="black"/>
<path d="M0.363281 2.581V0.0596394H21.0069C35.3787 -0.822836 39.0766 8.30658 39.1292 12.9816C39.3813 21.3021 32.5106 25.9036 29.0437 27.1642C36.986 44.3095 44.7497 49.9615 47.6388 50.6444V52.693C35.2841 54.8362 25.787 38.9831 22.5828 30.7887L21.0069 29.528L23.3707 26.5339C31.1869 24.0126 31.9853 16.4485 31.4075 12.9816C31.4075 5.29146 24.4738 2.84364 21.0069 2.581H0.363281Z" fill="#E74C3C"/>
<circle cx="14.7039" cy="27.637" r="3.78204" fill="#E74C3C"/>
</svg>
