<svg width="243" height="89" viewBox="0 0 243 89" fill="none" xmlns="http://www.w3.org/2000/svg">
<path d="M103.523 42.1062C108.5 42.1062 112.543 46.0457 112.543 50.8145V70.4082C112.543 74.9697 108.707 78.7018 103.938 78.7018H96.5775C91.9123 78.7018 87.9729 74.9697 88.0765 70.4082V56.2054H97.0958V70.7192H103.523V53.4063C103.523 51.9549 102.279 50.8145 100.828 50.8145H98.0289C92.5344 50.8145 88.0765 46.564 88.0765 41.2769V21.1648C88.0765 16.6033 91.9123 12.8712 96.5775 12.8712H103.938C108.707 12.8712 112.543 16.6033 112.543 21.1648V35.264H103.523V20.8538H97.0958V39.4108C97.0958 40.8622 98.3399 42.1062 99.8949 42.1062H103.523ZM137.175 20.7502H124.838V41.7952H135.62V49.6741H124.838V70.6155H137.175V78.5981H120.899H116.234V12.8712H120.899H137.175V20.7502ZM160.561 20.7502H148.225V41.7952H159.006V49.6741H148.225V70.6155H160.561V78.5981H144.285H139.62V12.8712H144.285H160.561V20.7502ZM188.095 37.5447C188.095 40.8622 186.125 43.7649 183.222 45.009V46.4604C186.125 47.8081 188.095 50.7109 188.095 54.0283V78.7018H178.764V53.7173H172.13V78.7018H162.799V54.0283C162.799 50.7109 164.769 47.8081 167.568 46.4604V45.009C164.769 43.7649 162.799 40.8622 162.799 37.5447V12.8712H172.026V37.8557H178.764V12.8712H188.095V37.5447Z" fill="#E74C3C"/>
<path d="M216.042 20.8538H203.498V41.7952H214.487V49.7778H203.498V78.7018H194.894V12.8712H216.042V20.8538ZM233.011 12.8712H242.341L233.322 58.5898V78.7018H224.199V58.5898L215.284 12.8712H224.407L228.761 39.3071H229.279L233.011 12.8712Z" fill="#423B3B"/>
<path d="M30.7292 46.6915C27.9227 49.6022 26.9556 53.3081 26.1649 57.5465C25.8154 59.5769 25.7271 61.7814 25.6389 63.9004C25.5507 65.8421 24.587 66.9887 22.8324 67.2548C21.3392 67.4322 18.3564 65.4018 17.8304 63.9891C17.3926 64.0778 14.145 69.6366 17.5657 79.7851C18.6176 82.7846 21.0746 84.6375 23.8844 85.9615C24.2339 86.139 24.4986 86.5792 24.7633 86.9307C24.3255 87.0194 23.8844 87.2822 23.5348 87.2822C10.812 85.2518 1.50776 76.8709 0.19422 63.7227C-0.946009 52.25 3.0007 41.7505 10.2864 33.0147C13.8836 28.6912 17.3959 24.8079 20.2023 19.9556C22.4828 15.9836 24.3255 11.9262 24.9397 7.33682C25.0279 6.27901 25.2892 3.36476 25.3774 2.92456C25.8152 3.102 32.0458 9.62996 34.0649 13.162C38.5409 21.1914 39.5047 25.8699 39.4165 34.9569C39.4165 35.4858 39.3283 36.1034 39.4165 36.6324C39.5048 39.1917 41.171 42.4574 44.5069 42.8088C46.9638 43.075 49.0712 42.0137 49.9467 39.6319C51.0869 36.6324 51.7011 32.3976 51.8777 32.0427C59.1602 43.338 63.4598 58.0726 57.3175 71.7494C53.7204 79.69 46.6111 84.8084 38.1 86.9277C37.8387 87.0165 37.574 87.1052 37.3093 87.1052C37.0446 87.0165 36.7833 86.839 36.4304 86.7537C36.6068 86.4875 36.6951 86.2248 36.8681 85.9586C36.9564 85.8699 37.0446 85.8699 37.1328 85.7812C42.5727 83.3106 44.6801 77.9292 44.2423 72.3674C43.8928 68.0439 42.1349 64.4268 39.5049 61.0721C37.574 58.6902 34.8524 56.2196 33.2744 53.5716C32.1341 51.3673 31.52 48.9846 30.7292 46.6915Z" fill="#E74C3C"/>
</svg>
