<svg width="248" height="248" viewBox="0 0 248 248" fill="none" xmlns="http://www.w3.org/2000/svg">
<circle cx="124" cy="124" r="124" fill="#E74C3C"/>
<path opacity="0.4" d="M124.428 157.714C131.134 157.714 137.566 155.05 142.308 150.308C147.05 145.566 149.714 139.134 149.714 132.428C149.714 125.722 147.05 119.291 142.308 114.549C137.566 109.807 131.134 107.143 124.428 107.143C117.722 107.143 111.291 109.807 106.549 114.549C101.807 119.291 99.1426 125.722 99.1426 132.428C99.1426 139.134 101.807 145.566 106.549 150.308C111.291 155.05 117.722 157.714 124.428 157.714Z" fill="white"/>
<path d="M96.2719 73.6393L93.5326 81.8571H73.8571C64.5594 81.8571 57 89.4165 57 98.7143V166.143C57 175.441 64.5594 183 73.8571 183H175C184.298 183 191.857 175.441 191.857 166.143V98.7143C191.857 89.4165 184.298 81.8571 175 81.8571H155.325L152.585 73.6393C150.873 68.4768 146.053 65 140.601 65H108.256C102.804 65 97.9839 68.4768 96.2719 73.6393ZM124.429 107.143C131.135 107.143 137.566 109.807 142.308 114.549C147.05 119.291 149.714 125.722 149.714 132.429C149.714 139.135 147.05 145.566 142.308 150.308C137.566 155.05 131.135 157.714 124.429 157.714C117.722 157.714 111.291 155.05 106.549 150.308C101.807 145.566 99.1429 139.135 99.1429 132.429C99.1429 125.722 101.807 119.291 106.549 114.549C111.291 109.807 117.722 107.143 124.429 107.143Z" fill="white"/>
</svg>
