<svg width="512" height="512" viewBox="0 0 512 512" fill="none" xmlns="http://www.w3.org/2000/svg">
<path d="M406.675 150.675C419.175 138.175 419.175 117.875 406.675 105.375C394.175 92.875 373.875 92.875 361.375 105.375L256.075 210.775L150.675 105.475C138.175 92.975 117.875 92.975 105.375 105.475C92.875 117.975 92.875 138.275 105.375 150.775L210.775 256.075L105.475 361.475C92.975 373.975 92.975 394.275 105.475 406.775C117.975 419.275 138.275 419.275 150.775 406.775L256.075 301.375L361.475 406.675C373.975 419.175 394.275 419.175 406.775 406.675C419.275 394.175 419.275 373.875 406.775 361.375L301.375 256.075L406.675 150.675Z" fill="black"/>
</svg>
