<svg width="512" height="512" viewBox="0 0 512 512" fill="none" xmlns="http://www.w3.org/2000/svg">
<path d="M331.338 83.425L301.238 113.425L399.138 211.325L429.238 181.225C451.138 159.325 451.138 123.925 429.238 102.025L410.538 83.425C388.638 61.525 353.238 61.525 331.338 83.425ZM278.638 136.025L111.338 303.425C105.238 309.525 100.538 317.025 97.8379 325.325L68.238 414.125C65.338 422.725 67.638 432.225 74.038 438.725C80.438 445.225 89.9379 447.425 98.6379 444.525L187.438 414.925C195.638 412.225 203.138 407.525 209.338 401.425L376.638 234.025L278.638 136.025Z" fill="#E74C3C"/>
</svg>
