<svg width="18" height="14" viewBox="0 0 18 14" fill="none" xmlns="http://www.w3.org/2000/svg">
<path opacity="0.4" d="M7.44246 1.2004C7.44246 0.882032 7.56893 0.576706 7.79405 0.351588C8.01917 0.12647 8.32449 0 8.64286 0C8.96122 0 9.26655 0.12647 9.49167 0.351588C9.71678 0.576706 9.84325 0.882032 9.84325 1.2004C9.84325 1.51876 9.71678 1.82409 9.49167 2.04921C9.26655 2.27432 8.96122 2.40079 8.64286 2.40079C8.32449 2.40079 8.01917 2.27432 7.79405 2.04921C7.56893 1.82409 7.44246 1.51876 7.44246 1.2004ZM0 3.12103C0 2.80267 0.12647 2.49734 0.351588 2.27222C0.576706 2.04711 0.882032 1.92063 1.2004 1.92063C1.51876 1.92063 1.82409 2.04711 2.04921 2.27222C2.27432 2.49734 2.40079 2.80267 2.40079 3.12103C2.40079 3.4394 2.27432 3.74472 2.04921 3.96984C1.82409 4.19496 1.51876 4.32143 1.2004 4.32143C0.882032 4.32143 0.576706 4.19496 0.351588 3.96984C0.12647 3.74472 0 3.4394 0 3.12103ZM16.0853 1.92063C16.4037 1.92063 16.709 2.04711 16.9341 2.27222C17.1592 2.49734 17.2857 2.80267 17.2857 3.12103C17.2857 3.4394 17.1592 3.74472 16.9341 3.96984C16.709 4.19496 16.4037 4.32143 16.0853 4.32143C15.767 4.32143 15.4616 4.19496 15.2365 3.96984C15.0114 3.74472 14.8849 3.4394 14.8849 3.12103C14.8849 2.80267 15.0114 2.49734 15.2365 2.27222C15.4616 2.04711 15.767 1.92063 16.0853 1.92063Z" fill="#FBBC04"/>
<path d="M15.1263 3.84124L12.4524 5.98095C11.9752 6.36207 11.267 6.20602 10.9939 5.65984L9.27432 2.2207C9.09126 2.33474 8.87519 2.40076 8.64411 2.40076C8.41303 2.40076 8.19696 2.33474 8.0139 2.2207L6.29433 5.65984C6.02124 6.20602 5.31301 6.36207 4.83585 5.98095L2.16197 3.84124C1.9459 4.12633 1.60678 4.3154 1.22266 4.3214L2.59411 11.8659C2.75916 12.7782 3.55443 13.4444 4.48474 13.4444H12.8035C13.7308 13.4444 14.5261 12.7812 14.6941 11.8659L16.0656 4.3214C15.6814 4.3154 15.3423 4.12633 15.1263 3.84124Z" fill="#FBBC04"/>
</svg>
