<svg width="28" height="32" viewBox="0 0 28 32" fill="none" xmlns="http://www.w3.org/2000/svg">
<g clip-path="url(#clip0_181_4)">
<path opacity="0.4" d="M0 11.7324H27.375V28.3529C27.375 29.9722 26.0612 31.2859 24.442 31.2859H2.93304C1.31376 31.2859 0 29.9722 0 28.3529V11.7324ZM3.91071 16.6208V18.5761C3.91071 19.1139 4.35067 19.5538 4.88839 19.5538H6.84375C7.38147 19.5538 7.82143 19.1139 7.82143 18.5761V16.6208C7.82143 16.083 7.38147 15.6431 6.84375 15.6431H4.88839C4.35067 15.6431 3.91071 16.083 3.91071 16.6208ZM12.7098 15.6431C12.1721 15.6431 11.7321 16.083 11.7321 16.6208V18.5761C11.7321 19.1139 12.1721 19.5538 12.7098 19.5538H14.6652C15.2029 19.5538 15.6429 19.1139 15.6429 18.5761V16.6208C15.6429 16.083 15.2029 15.6431 14.6652 15.6431H12.7098ZM19.5536 16.6208V18.5761C19.5536 19.1139 19.9935 19.5538 20.5312 19.5538H22.4866C23.0243 19.5538 23.4643 19.1139 23.4643 18.5761V16.6208C23.4643 16.083 23.0243 15.6431 22.4866 15.6431H20.5312C19.9935 15.6431 19.5536 16.083 19.5536 16.6208ZM4.88839 23.4645C4.35067 23.4645 3.91071 23.9045 3.91071 24.4422V26.3976C3.91071 26.9353 4.35067 27.3752 4.88839 27.3752H6.84375C7.38147 27.3752 7.82143 26.9353 7.82143 26.3976V24.4422C7.82143 23.9045 7.38147 23.4645 6.84375 23.4645H4.88839ZM11.7321 24.4422V26.3976C11.7321 26.9353 12.1721 27.3752 12.7098 27.3752H14.6652C15.2029 27.3752 15.6429 26.9353 15.6429 26.3976V24.4422C15.6429 23.9045 15.2029 23.4645 14.6652 23.4645H12.7098C12.1721 23.4645 11.7321 23.9045 11.7321 24.4422ZM20.5312 23.4645C19.9935 23.4645 19.5536 23.9045 19.5536 24.4422V26.3976C19.5536 26.9353 19.9935 27.3752 20.5312 27.3752H22.4866C23.0243 27.3752 23.4643 26.9353 23.4643 26.3976V24.4422C23.4643 23.9045 23.0243 23.4645 22.4866 23.4645H20.5312Z" fill="#E74C3C"/>
<path d="M9.77679 1.95536C9.77679 0.8738 8.90299 0 7.82143 0C6.73987 0 5.86607 0.8738 5.86607 1.95536V3.91071H2.93304C1.31376 3.91071 0 5.22447 0 6.84375V11.7321H27.375V6.84375C27.375 5.22447 26.0612 3.91071 24.442 3.91071H21.5089V1.95536C21.5089 0.8738 20.6351 0 19.5536 0C18.472 0 17.5982 0.8738 17.5982 1.95536V3.91071H9.77679V1.95536Z" fill="#E74C3C"/>
</g>
<defs>
<clipPath id="clip0_181_4">
<rect width="28" height="32" fill="white"/>
</clipPath>
</defs>
</svg>
