<svg width="36" height="19" viewBox="0 0 36 19" fill="none" xmlns="http://www.w3.org/2000/svg">
<path d="M29.9969 1.56161C30.1373 1.22009 30.4712 1 30.8393 1H35.0893C35.594 1 36 1.40603 36 1.91071V6.16071C36 6.52879 35.7799 6.86272 35.4384 7.00313C35.0969 7.14353 34.706 7.06763 34.4442 6.8058L33.1768 5.53839L31.1808 7.53438C31.9208 8.61205 32.3571 9.91362 32.3571 11.3214C32.3571 15.0098 29.367 18 25.6786 18C21.9902 18 19 15.0098 19 11.3214C19 7.63304 21.9902 4.64286 25.6786 4.64286C27.0826 4.64286 28.3879 5.07545 29.4656 5.8192L31.4616 3.82321L30.1942 2.5558C29.9324 2.29397 29.8565 1.90312 29.9969 1.56161ZM25.6786 15.5714C26.2367 15.5714 26.7893 15.4615 27.305 15.2479C27.8206 15.0343 28.2891 14.7213 28.6838 14.3266C29.0784 13.932 29.3915 13.4635 29.6051 12.9478C29.8186 12.4322 29.9286 11.8795 29.9286 11.3214C29.9286 10.7633 29.8186 10.2107 29.6051 9.69502C29.3915 9.17939 29.0784 8.71087 28.6838 8.31623C28.2891 7.92158 27.8206 7.60852 27.305 7.39494C26.7893 7.18136 26.2367 7.07143 25.6786 7.07143C25.1205 7.07143 24.5678 7.18136 24.0522 7.39494C23.5365 7.60852 23.068 7.92158 22.6734 8.31623C22.2787 8.71087 21.9657 9.17939 21.7521 9.69502C21.5385 10.2107 21.4286 10.7633 21.4286 11.3214C21.4286 11.8795 21.5385 12.4322 21.7521 12.9478C21.9657 13.4635 22.2787 13.932 22.6734 14.3266C23.068 14.7213 23.5365 15.0343 24.0522 15.2479C24.5678 15.4615 25.1205 15.5714 25.6786 15.5714Z" fill="#05C8F7"/>
<g clip-path="url(#clip0_48_8)">
<path d="M2.91732 6.53125C2.91732 5.98544 3.02294 5.44498 3.22814 4.94072C3.43335 4.43646 3.73413 3.97828 4.1133 3.59234C4.49247 3.20639 4.94261 2.90025 5.43803 2.69138C5.93344 2.4825 6.46442 2.375 7.00065 2.375C7.53688 2.375 8.06786 2.4825 8.56327 2.69138C9.05869 2.90025 9.50883 3.20639 9.888 3.59234C10.2672 3.97828 10.568 4.43646 10.7732 4.94072C10.9784 5.44498 11.084 5.98544 11.084 6.53125C11.084 7.07706 10.9784 7.61752 10.7732 8.12178C10.568 8.62604 10.2672 9.08422 9.888 9.47016C9.50883 9.85611 9.05869 10.1623 8.56327 10.3711C8.06786 10.58 7.53688 10.6875 7.00065 10.6875C6.46442 10.6875 5.93344 10.58 5.43803 10.3711C4.94261 10.1623 4.49247 9.85611 4.1133 9.47016C3.73413 9.08422 3.43335 8.62604 3.22814 8.12178C3.02294 7.61752 2.91732 7.07706 2.91732 6.53125ZM8.16732 12.9549C11.1533 12.3982 13.4173 9.73379 13.4173 6.53125C13.4173 2.92422 10.5444 0 7.00065 0C3.4569 0 0.583984 2.92422 0.583984 6.53125C0.583984 9.73379 2.84805 12.3982 5.83398 12.9549V14.25H4.66732H3.50065V16.625H4.66732H5.83398V17.8125V19H8.16732V17.8125V16.625H9.33398H10.5007V14.25H9.33398H8.16732V12.9549Z" fill="#FD73EF"/>
</g>
<defs>
<clipPath id="clip0_48_8">
<rect width="14" height="19" fill="white"/>
</clipPath>
</defs>
</svg>
