<svg width="37" height="30" viewBox="0 0 37 30" fill="none" xmlns="http://www.w3.org/2000/svg">
<g clip-path="url(#clip0_181_10)">
<path opacity="0.4" d="M13.1543 21.7637C19.8255 21.1897 25.4569 16.3824 25.4569 10.0009C25.4569 9.70542 25.4455 9.40993 25.4228 9.12012C31.5428 9.49516 36.3672 13.8196 36.3672 19.0929C36.3672 21.2863 35.5319 23.315 34.117 24.9686C34.3159 25.5027 34.6113 25.9744 34.9239 26.3722C35.1966 26.7245 35.4751 26.9972 35.6796 27.1848C35.7819 27.2757 35.8672 27.3496 35.924 27.395C35.9524 27.4177 35.9751 27.4348 35.9865 27.4405L35.9979 27.4518C36.3161 27.6848 36.4468 28.094 36.3274 28.469C36.2081 28.844 35.8558 29.0998 35.4637 29.0998C34.2249 29.0998 32.9748 28.7815 31.9349 28.3895C31.4121 28.1906 30.9234 27.9689 30.5029 27.7416C28.747 28.5997 26.7184 29.0941 24.5477 29.0941C19.1152 29.0941 14.5351 25.9914 13.1543 21.7637Z" fill="#E74C3C"/>
<path d="M23.6391 10.0012C23.6391 15.5245 18.3487 20.0023 11.8196 20.0023C9.64885 20.0023 7.62021 19.508 5.87 18.6442C5.44382 18.8715 4.9608 19.0931 4.43233 19.292C3.39812 19.6841 2.14798 20.0023 0.909197 20.0023C0.517106 20.0023 0.164792 19.7466 0.0454598 19.3716C-0.0738722 18.9965 0.0568248 18.5874 0.375044 18.3544L0.386409 18.343C0.397774 18.3317 0.420503 18.3203 0.448916 18.2976C0.505741 18.2521 0.590978 18.1839 0.693263 18.0873C0.897832 17.8998 1.17627 17.6271 1.44903 17.2747C1.76157 16.877 2.05706 16.3996 2.25594 15.8712C0.835325 14.2232 0 12.1946 0 10.0012C0 4.47779 5.29039 0 11.8196 0C18.3487 0 23.6391 4.47779 23.6391 10.0012Z" fill="#E74C3C"/>
</g>
<defs>
<clipPath id="clip0_181_10">
<rect width="37" height="30" fill="white"/>
</clipPath>
</defs>
</svg>
