<svg width="26" height="30" viewBox="0 0 26 30" fill="none" xmlns="http://www.w3.org/2000/svg">
<path opacity="0.4" d="M13.0017 3.71429C10.4365 3.71429 8.35882 5.79196 8.35882 8.35714V11.1429H4.64453V8.35714C4.64453 3.7433 8.38783 0 13.0017 0C17.6155 0 21.3588 3.7433 21.3588 8.35714V11.1429H17.6445V8.35714C17.6445 5.79196 15.5669 3.71429 13.0017 3.71429Z" fill="#AAAAAA"/>
<path d="M0 14.8574C0 12.8087 1.66562 11.1431 3.71429 11.1431H22.2857C24.3344 11.1431 26 12.8087 26 14.8574V26.0002C26 28.0489 24.3344 29.7145 22.2857 29.7145H3.71429C1.66562 29.7145 0 28.0489 0 26.0002V14.8574Z" fill="#AAAAAA"/>
</svg>
