<svg width="512" height="512" viewBox="0 0 512 512" fill="none" xmlns="http://www.w3.org/2000/svg">
<path d="M225.8 468.2L223.3 465.9L48.1 303.2C17.4 274.7 0 234.7 0 192.8V189.5C0 119.1 50 58.7001 119.2 45.5001C158.6 37.9001 198.9 47.0001 231 69.6001C240 76.0001 248.4 83.4001 256 91.9001C260.2 87.1001 264.7 82.7001 269.5 78.6001C273.2 75.4001 277 72.4001 281 69.6001C313.1 47.0001 353.4 37.9001 392.8 45.4001C462 58.6001 512 119.1 512 189.5V192.8C512 234.7 494.6 274.7 463.9 303.2L288.7 465.9L286.2 468.2C278 475.8 267.2 480.1 256 480.1C244.8 480.1 234 475.9 225.8 468.2ZM239.1 145C238.7 144.7 238.4 144.3 238.1 143.9L220.3 123.9L220.2 123.8C197.1 97.9001 162.2 86.1001 128.2 92.6001C81.6 101.5 48 142.1 48 189.5V192.8C48 221.3 59.9 248.6 80.8 268L256 430.7L431.2 268C452.1 248.6 464 221.3 464 192.8V189.5C464 142.2 430.4 101.5 383.9 92.6001C349.9 86.1001 314.9 98.0001 291.9 123.8C291.9 123.8 291.9 123.8 291.8 123.9C291.7 124 291.8 123.9 291.7 124L273.9 144C273.6 144.4 273.2 144.7 272.9 145.1C268.4 149.6 262.3 152.1 256 152.1C249.7 152.1 243.6 149.6 239.1 145.1V145Z" fill="white"/>
</svg>
