<svg width="27" height="20" viewBox="0 0 27 20" fill="none" xmlns="http://www.w3.org/2000/svg">
<path opacity="0.4" d="M0.182493 1.23437C0.515826 0.484375 1.26062 0 2.08353 0H16.2502C17.0731 0 17.8179 0.484375 18.1512 1.23437C18.4846 1.98437 18.3492 2.86458 17.7971 3.47396L12.5002 9.36458V18.3333C12.5002 18.9635 12.146 19.5417 11.5783 19.8229C11.0106 20.1042 10.3387 20.0469 9.83354 19.6667L6.5002 17.1667C6.07833 16.8542 5.83353 16.3594 5.83353 15.8333V9.36458L0.53666 3.47917C-0.0154238 2.86458 -0.156049 1.98958 0.182493 1.23437Z" fill="#665F5F"/>
<path d="M21.666 0H24.9993C25.9212 0 26.666 0.744792 26.666 1.66667C26.666 2.58854 25.9212 3.33333 24.9993 3.33333H21.666C20.7441 3.33333 19.9993 2.58854 19.9993 1.66667C19.9993 0.744792 20.7441 0 21.666 0ZM16.666 10C16.666 9.07812 17.4108 8.33333 18.3327 8.33333H24.9993C25.9212 8.33333 26.666 9.07812 26.666 10C26.666 10.9219 25.9212 11.6667 24.9993 11.6667H18.3327C17.4108 11.6667 16.666 10.9219 16.666 10ZM16.666 18.3333C16.666 17.4115 17.4108 16.6667 18.3327 16.6667H24.9993C25.9212 16.6667 26.666 17.4115 26.666 18.3333C26.666 19.2552 25.9212 20 24.9993 20H18.3327C17.4108 20 16.666 19.2552 16.666 18.3333Z" fill="#665F5F"/>
</svg>
