<svg width="23" height="21" viewBox="0 0 23 21" fill="none" xmlns="http://www.w3.org/2000/svg">
<path opacity="0.4" d="M15.7721 2.58031C16.0057 1.41234 15.2465 0.27582 14.0785 0.0422264C12.9105 -0.191367 11.774 0.567812 11.5404 1.73578L11.4371 2.24789C11.1406 3.7393 10.323 5.07797 9.13711 6.03031L8.80469 6.29535C7.78047 7.11293 7.1875 8.35277 7.1875 9.66449V10.783V12.9393V14.6598C7.1875 16.1018 7.90625 17.4495 9.10566 18.2491L10.8352 19.4036C11.5449 19.8752 12.376 20.1268 13.2295 20.1268H17.6094C18.7998 20.1268 19.7656 19.161 19.7656 17.9705C19.7656 17.8088 19.7477 17.6561 19.7162 17.5034C20.5787 17.2204 21.2031 16.4118 21.2031 15.4549C21.2031 15.0461 21.0908 14.6643 20.8932 14.3364C21.8904 14.1477 22.6406 13.2717 22.6406 12.2205C22.6406 11.5422 22.3262 10.9358 21.8365 10.5405C22.5283 10.1811 23 9.45785 23 8.6268C23 7.43637 22.0342 6.47055 20.8437 6.47055H14.375C14.9904 5.43285 15.4307 4.29184 15.6687 3.09242L15.7721 2.58031Z" fill="white"/>
<path d="M0 8.62695C0 7.83184 0.642383 7.18945 1.4375 7.18945H4.3125C5.10762 7.18945 5.75 7.83184 5.75 8.62695V18.6895C5.75 19.4846 5.10762 20.127 4.3125 20.127H1.4375C0.642383 20.127 0 19.4846 0 18.6895V8.62695Z" fill="white"/>
</svg>
