<svg width="71" height="80" viewBox="0 0 71 80" fill="none" xmlns="http://www.w3.org/2000/svg">
<path opacity="0.4" d="M35.4994 9.92857C28.6425 9.92857 23.0887 15.4824 23.0887 22.3393V29.7857H13.1602V22.3393C13.1602 10.0061 23.1663 0 35.4994 0C47.8326 0 57.8387 10.0061 57.8387 22.3393V29.7857H47.9102V22.3393C47.9102 15.4824 42.3564 9.92857 35.4994 9.92857Z" fill="white"/>
<path d="M0.75 39.7142C0.75 34.238 5.20234 29.7856 10.6786 29.7856H60.3214C65.7977 29.7856 70.25 34.238 70.25 39.7142V69.4999C70.25 74.9762 65.7977 79.4285 60.3214 79.4285H10.6786C5.20234 79.4285 0.75 74.9762 0.75 69.4999V39.7142Z" fill="white"/>
</svg>
