<svg width="29" height="29" viewBox="0 0 29 29" fill="none" xmlns="http://www.w3.org/2000/svg">
<g clip-path="url(#clip0_177_13)">
<path opacity="0.4" d="M12.1607 9.60059C12.8687 9.26074 13.6617 9.0625 14.5 9.0625C15.3383 9.0625 16.1312 9.26074 16.8393 9.60059C16.8449 9.59492 16.8336 9.60625 16.8393 9.60059L23.3812 3.05293C20.9287 1.1498 17.8531 0 14.5 0C11.1469 0 8.07129 1.1498 5.61875 3.05293L12.1607 9.60059C12.1664 9.60625 12.1551 9.59492 12.1607 9.60059ZM9.60059 16.8393C9.26074 16.1312 9.0625 15.3383 9.0625 14.5C9.0625 13.6617 9.26074 12.8687 9.60059 12.1607C9.60625 12.1664 9.59492 12.1551 9.60059 12.1607L3.05293 5.61875C1.1498 8.07129 0 11.1469 0 14.5C0 17.8531 1.1498 20.9287 3.05293 23.3812L9.60059 16.8393C9.60625 16.8336 9.59492 16.8449 9.60059 16.8393ZM25.9471 5.61875L19.3994 12.1607C19.4051 12.1551 19.3937 12.1664 19.3994 12.1607C19.7393 12.8687 19.9375 13.6617 19.9375 14.5C19.9375 15.3383 19.7393 16.1312 19.3994 16.8393C19.4051 16.8449 19.3937 16.8336 19.3994 16.8393L25.9471 23.3812C27.8502 20.9287 29 17.8531 29 14.5C29 11.1469 27.8502 8.07129 25.9471 5.61875ZM16.8393 19.3994C16.1312 19.7393 15.3383 19.9375 14.5 19.9375C13.6617 19.9375 12.8687 19.7393 12.1607 19.3994C12.1664 19.3937 12.1551 19.4051 12.1607 19.3994L5.61875 25.9471C8.07129 27.8502 11.1469 29 14.5 29C17.8531 29 20.9287 27.8502 23.3812 25.9471L16.8393 19.3994C16.8449 19.4051 16.8336 19.3937 16.8393 19.3994Z" fill="black"/>
<path d="M3.25171 3.25122C2.5437 3.95923 2.5437 5.10903 3.25171 5.81704L9.59546 12.1608C10.1335 11.0393 11.0398 10.1331 12.1613 9.59497L5.81753 3.25122C5.10952 2.54321 3.95972 2.54321 3.25171 3.25122ZM9.59546 16.845L3.25171 23.1887C2.5437 23.8967 2.5437 25.0465 3.25171 25.7545C3.95972 26.4625 5.10952 26.4625 5.81753 25.7545L12.1613 19.4108C11.0398 18.8727 10.1335 17.9665 9.59546 16.845ZM16.8455 19.4108L23.1892 25.7545C23.8972 26.4625 25.047 26.4625 25.755 25.7545C26.463 25.0465 26.463 23.8967 25.755 23.1887L19.4113 16.845C18.8732 17.9665 17.9669 18.8727 16.8455 19.4108ZM19.4113 12.1608L25.755 5.81704C26.463 5.10903 26.463 3.95923 25.755 3.25122C25.047 2.54321 23.8972 2.54321 23.1892 3.25122L16.8455 9.59497C17.9669 10.1331 18.8732 11.0393 19.4113 12.1608Z" fill="black"/>
</g>
<defs>
<clipPath id="clip0_177_13">
<rect width="29" height="29" fill="white"/>
</clipPath>
</defs>
</svg>
