<svg width="17" height="17" viewBox="0 0 17 17" fill="none" xmlns="http://www.w3.org/2000/svg">
<path d="M10.9969 0.561607C11.1373 0.220089 11.4712 0 11.8393 0H16.0893C16.594 0 17 0.406027 17 0.910714V5.16071C17 5.52879 16.7799 5.86272 16.4384 6.00313C16.0969 6.14353 15.706 6.06763 15.4442 5.8058L14.1768 4.53839L12.1808 6.53438C12.9208 7.61205 13.3571 8.91362 13.3571 10.3214C13.3571 14.0098 10.367 17 6.67857 17C2.99018 17 0 14.0098 0 10.3214C0 6.63304 2.99018 3.64286 6.67857 3.64286C8.08259 3.64286 9.38795 4.07545 10.4656 4.8192L12.4616 2.82321L11.1942 1.5558C10.9324 1.29397 10.8565 0.903125 10.9969 0.561607ZM6.67857 14.5714C7.23669 14.5714 7.78934 14.4615 8.30498 14.2479C8.82061 14.0343 9.28913 13.7213 9.68377 13.3266C10.0784 12.932 10.3915 12.4635 10.6051 11.9478C10.8186 11.4322 10.9286 10.8795 10.9286 10.3214C10.9286 9.76331 10.8186 9.21066 10.6051 8.69502C10.3915 8.17939 10.0784 7.71087 9.68377 7.31623C9.28913 6.92158 8.82061 6.60852 8.30498 6.39494C7.78934 6.18136 7.23669 6.07143 6.67857 6.07143C6.12045 6.07143 5.5678 6.18136 5.05217 6.39494C4.53653 6.60852 4.06802 6.92158 3.67337 7.31623C3.27872 7.71087 2.96567 8.17939 2.75208 8.69502C2.5385 9.21066 2.42857 9.76331 2.42857 10.3214C2.42857 10.8795 2.5385 11.4322 2.75208 11.9478C2.96567 12.4635 3.27872 12.932 3.67337 13.3266C4.06802 13.7213 4.53653 14.0343 5.05217 14.2479C5.5678 14.4615 6.12045 14.5714 6.67857 14.5714Z" fill="white"/>
</svg>
