<svg width="77" height="108" viewBox="0 0 77 108" fill="none" xmlns="http://www.w3.org/2000/svg">
<path d="M39.2687 56.0332C35.6823 59.7598 34.4463 64.5043 33.436 69.9306C32.9893 72.53 32.8765 75.3523 32.7638 78.0652C32.651 80.5511 31.4195 82.019 29.1774 82.3597C27.2693 82.5868 23.4575 79.9874 22.7853 78.1787C22.2259 78.2923 18.0758 85.409 22.447 98.4018C23.7913 102.242 26.9311 104.614 30.5217 106.309C30.9684 106.536 31.3066 107.1 31.6449 107.55C31.0855 107.664 30.5217 108 30.075 108C13.8166 105.401 1.92676 94.6708 0.248192 77.8377C-1.2089 63.1496 3.83458 49.7074 13.145 38.5234C17.7417 32.9881 22.2301 28.0165 25.8164 21.8043C28.7306 16.719 31.0854 11.5245 31.8702 5.64886C31.983 4.29458 32.3169 0.563566 32.4297 0C32.9891 0.227171 40.9511 8.58468 43.5313 13.1066C49.2512 23.3864 50.4828 29.3761 50.3701 41.0098C50.3701 41.687 50.2574 42.4777 50.3701 43.1549C50.4829 46.4315 52.6121 50.6125 56.875 51.0624C60.0147 51.4032 62.7077 50.0445 63.8266 46.9951C65.2837 43.1549 66.0685 37.7333 66.2941 37.2789C75.6004 51.7399 81.0948 70.6041 73.2456 88.1139C68.6489 98.28 59.564 104.833 48.6877 107.546C48.3538 107.66 48.0155 107.773 47.6773 107.773C47.339 107.66 47.0051 107.433 46.5541 107.323C46.7796 106.983 46.8924 106.646 47.1135 106.306C47.2263 106.192 47.339 106.192 47.4518 106.078C54.4033 102.915 57.0963 96.0258 56.5369 88.9052C56.0903 83.37 53.8439 78.7391 50.4831 74.4442C48.0155 71.3947 44.5376 68.2318 42.5211 64.8416C41.064 62.0194 40.2791 58.969 39.2687 56.0332Z" fill="#E74C3C"/>
</svg>
