<svg width="37" height="30" viewBox="0 0 37 30" fill="none" xmlns="http://www.w3.org/2000/svg">
<path opacity="0.4" d="M13.1543 21.7639C19.8255 21.1899 25.4569 16.3826 25.4569 10.0011C25.4569 9.70566 25.4455 9.41017 25.4228 9.12036C31.5428 9.4954 36.3672 13.8198 36.3672 19.0931C36.3672 21.2865 35.5319 23.3152 34.117 24.9688C34.3159 25.5029 34.6113 25.9746 34.9239 26.3724C35.1966 26.7247 35.4751 26.9974 35.6796 27.185C35.7819 27.2759 35.8672 27.3498 35.924 27.3952C35.9524 27.4179 35.9751 27.435 35.9865 27.4407L35.9979 27.452C36.3161 27.685 36.4468 28.0942 36.3274 28.4692C36.2081 28.8442 35.8558 29.1 35.4637 29.1C34.2249 29.1 32.9748 28.7817 31.9349 28.3897C31.4121 28.1908 30.9234 27.9691 30.5029 27.7418C28.747 28.5999 26.7184 29.0943 24.5477 29.0943C19.1152 29.0943 14.5351 25.9916 13.1543 21.7639Z" fill="white"/>
<path d="M23.6391 10.0012C23.6391 15.5245 18.3487 20.0023 11.8196 20.0023C9.64885 20.0023 7.62021 19.508 5.87 18.6442C5.44382 18.8715 4.9608 19.0931 4.43233 19.292C3.39812 19.6841 2.14798 20.0023 0.909197 20.0023C0.517106 20.0023 0.164792 19.7466 0.0454598 19.3716C-0.0738722 18.9965 0.0568248 18.5874 0.375044 18.3544L0.386409 18.343C0.397774 18.3317 0.420503 18.3203 0.448916 18.2976C0.505741 18.2521 0.590978 18.1839 0.693263 18.0873C0.897832 17.8998 1.17627 17.6271 1.44903 17.2747C1.76157 16.877 2.05706 16.3996 2.25594 15.8712C0.835325 14.2232 0 12.1946 0 10.0012C0 4.47779 5.29039 0 11.8196 0C18.3487 0 23.6391 4.47779 23.6391 10.0012Z" fill="white"/>
</svg>
