<svg width="18" height="26" viewBox="0 0 18 26" fill="none" xmlns="http://www.w3.org/2000/svg">
<mask id="mask0_30_191" style="mask-type:luminance" maskUnits="userSpaceOnUse" x="0" y="0" width="18" height="26">
<path d="M16.9925 4.83592C16.4471 3.78154 15.6969 2.84647 14.7858 2.08535C13.8748 1.32424 12.8212 0.752349 11.6866 0.403108C10.8162 0.13562 9.91065 -0.000209361 9.00005 0.000125427C7.68042 -0.00686729 6.37562 0.278612 5.17948 0.836039C3.98333 1.39347 2.92555 2.20899 2.08218 3.22399C0.727481 4.84286 -0.0101462 6.88918 0.000105437 9.00007C0.000105437 11.5523 0.873235 13.2986 0.873235 13.2986C1.88069 15.4478 3.69411 17.3955 4.97023 19.0746C5.70945 20.0354 6.38263 21.0451 6.98514 22.097C7.46095 22.9959 7.84353 23.9411 8.12692 24.9179C8.32841 25.5895 8.52991 25.791 9.00005 25.791C9.4702 25.791 9.73885 25.4552 9.87318 24.9179C10.1418 23.9675 10.5016 23.0453 10.9478 22.1642C11.8377 20.6734 12.8485 19.2582 13.9702 17.9329C14.306 17.5299 16.1194 15.3135 16.9925 13.6344C16.9925 13.6344 18 11.6866 18 9.06724C18 6.58218 16.9925 4.83592 16.9925 4.83592Z" fill="white"/>
</mask>
<g mask="url(#mask0_30_191)">
<path d="M-1.20898 21.1568L8.99991 9.00012L-1.20898 21.1568Z" fill="black"/>
<path d="M-1.20898 21.1568L8.99991 9.00012" stroke="#FBBC04" stroke-width="8.73129"/>
<path d="M9 9.0001L17.194 -0.738647L9 9.0001Z" fill="black"/>
<path d="M9 9.0001L17.194 -0.738647" stroke="#4285F4" stroke-width="8.73129"/>
<path d="M4.5 26.5299L20.8208 7.05237L4.5 26.5299Z" fill="black"/>
<path d="M4.5 26.5299L20.8208 7.05237" stroke="#34A853" stroke-width="8.73129"/>
<path d="M8.93289 3.76133L3.62695 -0.738647L8.93289 3.76133Z" fill="black"/>
<path d="M8.93289 3.76133L3.62695 -0.738647" stroke="#1A73E8" stroke-width="8.73129"/>
<path d="M-3.08984 11.2837L3.02206 3.96283L-3.08984 11.2837Z" fill="black"/>
<path d="M-3.08984 11.2837L3.02206 3.96283" stroke="#EA4335" stroke-width="8.73129"/>
</g>
<path d="M9.00153 12.4255C10.8933 12.4255 12.4269 10.8919 12.4269 9.00012C12.4269 7.10835 10.8933 5.57477 9.00153 5.57477C7.10975 5.57477 5.57617 7.10835 5.57617 9.00012C5.57617 10.8919 7.10975 12.4255 9.00153 12.4255Z" fill="white"/>
</svg>
