<svg width="14" height="19" viewBox="0 0 14 19" fill="none" xmlns="http://www.w3.org/2000/svg">
<g clip-path="url(#clip0_30_18)">
<path d="M2.91732 6.53125C2.91732 5.98544 3.02294 5.44498 3.22814 4.94072C3.43335 4.43646 3.73413 3.97828 4.1133 3.59234C4.49247 3.20639 4.94261 2.90025 5.43803 2.69138C5.93344 2.4825 6.46442 2.375 7.00065 2.375C7.53688 2.375 8.06786 2.4825 8.56327 2.69138C9.05869 2.90025 9.50883 3.20639 9.888 3.59234C10.2672 3.97828 10.568 4.43646 10.7732 4.94072C10.9784 5.44498 11.084 5.98544 11.084 6.53125C11.084 7.07706 10.9784 7.61752 10.7732 8.12178C10.568 8.62604 10.2672 9.08422 9.888 9.47016C9.50883 9.85611 9.05869 10.1623 8.56327 10.3711C8.06786 10.58 7.53688 10.6875 7.00065 10.6875C6.46442 10.6875 5.93344 10.58 5.43803 10.3711C4.94261 10.1623 4.49247 9.85611 4.1133 9.47016C3.73413 9.08422 3.43335 8.62604 3.22814 8.12178C3.02294 7.61752 2.91732 7.07706 2.91732 6.53125ZM8.16732 12.9549C11.1533 12.3982 13.4173 9.73379 13.4173 6.53125C13.4173 2.92422 10.5444 0 7.00065 0C3.4569 0 0.583984 2.92422 0.583984 6.53125C0.583984 9.73379 2.84805 12.3982 5.83398 12.9549V14.25H4.66732H3.50065V16.625H4.66732H5.83398V17.8125V19H8.16732V17.8125V16.625H9.33398H10.5007V14.25H9.33398H8.16732V12.9549Z" fill="white"/>
</g>
<defs>
<clipPath id="clip0_30_18">
<rect width="14" height="19" fill="white"/>
</clipPath>
</defs>
</svg>
