<svg width="34" height="29" viewBox="0 0 34 29" fill="none" xmlns="http://www.w3.org/2000/svg">
<path opacity="0.4" d="M0.714844 4.14286C0.714844 1.85781 2.57266 0 4.8577 0H29.7148C31.9999 0 33.8577 1.85781 33.8577 4.14286V24.8571C33.8577 27.1422 31.9999 29 29.7148 29H4.8577C2.57266 29 0.714844 27.1422 0.714844 24.8571V4.14286ZM21.6751 11.0368C21.3838 10.6096 20.9048 10.3571 20.3934 10.3571C19.882 10.3571 19.3965 10.6096 19.1117 11.0368L13.48 19.2967L11.7646 17.154C11.4669 16.785 11.0202 16.5714 10.5541 16.5714C10.0881 16.5714 9.63493 16.785 9.34364 17.154L5.20078 22.3326C4.82534 22.7987 4.75413 23.4395 5.01306 23.9768C5.27199 24.5141 5.81574 24.8571 6.41127 24.8571H12.6256H14.697H28.1613C28.7374 24.8571 29.2682 24.54 29.5336 24.0286C29.799 23.5172 29.7666 22.9022 29.443 22.4297L21.6751 11.0368ZM7.96484 10.3571C8.78891 10.3571 9.57922 10.0298 10.1619 9.44708C10.7446 8.86438 11.072 8.07407 11.072 7.25C11.072 6.42593 10.7446 5.63562 10.1619 5.05292C9.57922 4.47022 8.78891 4.14286 7.96484 4.14286C7.14078 4.14286 6.35046 4.47022 5.76776 5.05292C5.18506 5.63562 4.8577 6.42593 4.8577 7.25C4.8577 8.07407 5.18506 8.86438 5.76776 9.44708C6.35046 10.0298 7.14078 10.3571 7.96484 10.3571Z" fill="#AAAAAA"/>
<path d="M21.6753 11.0369C21.384 10.6096 20.905 10.3572 20.3936 10.3572C19.8823 10.3572 19.3968 10.6096 19.1119 11.0369L13.4802 19.2967L11.7648 17.1541C11.4671 16.7851 11.0204 16.5715 10.5544 16.5715C10.0883 16.5715 9.63516 16.7851 9.34386 17.1541L5.20101 22.3326C4.82556 22.7987 4.75436 23.4395 5.01328 23.9768C5.27221 24.5141 5.81596 24.8572 6.4115 24.8572H12.6258H14.6972H28.1615C28.7376 24.8572 29.2684 24.54 29.5338 24.0286C29.7992 23.5172 29.7669 22.9023 29.4432 22.4297L21.6753 11.0369Z" fill="#AAAAAA"/>
</svg>
