<svg width="23" height="30" viewBox="0 0 23 30" fill="none" xmlns="http://www.w3.org/2000/svg">
<path d="M12.6715 29.3259C15.6851 25.5544 22.5584 16.4136 22.5584 11.2792C22.5584 5.05214 17.5062 0 11.2792 0C5.05214 0 0 5.05214 0 11.2792C0 16.4136 6.87326 25.5544 9.88691 29.3259C10.6095 30.2247 11.9489 30.2247 12.6715 29.3259ZM11.2792 6.57953C12.5256 6.57953 13.721 7.07467 14.6024 7.95603C15.4837 8.83738 15.9789 10.0328 15.9789 11.2792C15.9789 12.5256 15.4837 13.721 14.6024 14.6024C13.721 15.4837 12.5256 15.9789 11.2792 15.9789C10.0328 15.9789 8.83738 15.4837 7.95603 14.6024C7.07467 13.721 6.57953 12.5256 6.57953 11.2792C6.57953 10.0328 7.07467 8.83738 7.95603 7.95603C8.83738 7.07467 10.0328 6.57953 11.2792 6.57953Z" fill="white"/>
<path d="M11.2788 8.45935C10.5309 8.45935 9.8137 8.75644 9.28488 9.28525C8.75607 9.81406 8.45898 10.5313 8.45898 11.2791C8.45898 12.027 8.75607 12.7442 9.28488 13.273C9.8137 13.8019 10.5309 14.0989 11.2788 14.0989C12.0266 14.0989 12.7439 13.8019 13.2727 13.273C13.8015 12.7442 14.0986 12.027 14.0986 11.2791C14.0986 10.5313 13.8015 9.81406 13.2727 9.28525C12.7439 8.75644 12.0266 8.45935 11.2788 8.45935Z" fill="white"/>
</svg>
