<svg width="106" height="74" viewBox="0 0 106 74" fill="none" xmlns="http://www.w3.org/2000/svg">
<path opacity="0.4" d="M20.3033 6.24717C22.1492 6.24717 23.977 6.61075 25.6824 7.31713C27.3877 8.02352 28.9373 9.05889 30.2425 10.3641C31.5477 11.6694 32.5831 13.2189 33.2895 14.9243C33.9959 16.6296 34.3595 18.4574 34.3595 20.3033C34.3595 22.1492 33.9959 23.977 33.2895 25.6824C32.5831 27.3877 31.5477 28.9373 30.2425 30.2425C28.9373 31.5477 27.3877 32.5831 25.6824 33.2895C23.977 33.9959 22.1492 34.3595 20.3033 34.3595C18.4574 34.3595 16.6296 33.9959 14.9243 33.2895C13.2189 32.5831 11.6694 31.5477 10.3641 30.2425C9.05889 28.9373 8.02352 27.3877 7.31713 25.6824C6.61075 23.977 6.24717 22.1492 6.24717 20.3033C6.24717 18.4574 6.61075 16.6296 7.31713 14.9243C8.02352 13.2189 9.05889 11.6694 10.3641 10.3641C11.6694 9.05889 13.2189 8.02352 14.9243 7.31713C16.6296 6.61075 18.4574 6.24717 20.3033 6.24717ZM20.3033 40.6066C25.6881 40.6066 30.8523 38.4675 34.6599 34.6599C38.4675 30.8523 40.6066 25.6881 40.6066 20.3033C40.6066 14.9185 38.4675 9.75431 34.6599 5.9467C30.8523 2.13909 25.6881 0 20.3033 0C14.9185 0 9.75431 2.13909 5.9467 5.9467C2.13909 9.75431 0 14.9185 0 20.3033C0 25.6881 2.13909 30.8523 5.9467 34.6599C9.75431 38.4675 14.9185 40.6066 20.3033 40.6066Z" fill="#E74C3C"/>
<path d="M32.2793 36.7021L44.6467 49.0598C45.8669 50.2799 47.8484 50.2799 49.0686 49.0598C50.2887 47.8396 50.2887 45.8581 49.0686 44.638L36.7011 32.2803C35.4614 33.969 33.968 35.4624 32.2793 36.7021Z" fill="#E74C3C"/>
<path fill-rule="evenodd" clip-rule="evenodd" d="M20 44.7972C17.8901 44.5095 15.8754 43.9227 14 43.0808V64C14 69.5228 18.4772 74 24 74H96C101.523 74 106 69.5228 106 64V17C106 11.4772 101.523 7 96 7H38.0998C39.9216 8.71996 41.4498 10.7477 42.6012 13H96C98.2091 13 100 14.7909 100 17V64C100 66.2091 98.2091 68 96 68H24C21.7909 68 20 66.2091 20 64V44.7972Z" fill="#E74C3C"/>
</svg>
