<svg width="23" height="23" viewBox="0 0 23 23" fill="none" xmlns="http://www.w3.org/2000/svg">
<path opacity="0.4" d="M9.33379 2.87193C10.1824 2.87193 11.0226 3.03908 11.8066 3.36381C12.5906 3.68855 13.303 4.16453 13.903 4.76457C14.503 5.36461 14.979 6.07696 15.3038 6.86094C15.6285 7.64493 15.7956 8.4852 15.7956 9.33379C15.7956 10.1824 15.6285 11.0226 15.3038 11.8066C14.979 12.5906 14.503 13.303 13.903 13.903C13.303 14.503 12.5906 14.979 11.8066 15.3038C11.0226 15.6285 10.1824 15.7956 9.33379 15.7956C8.4852 15.7956 7.64493 15.6285 6.86094 15.3038C6.07696 14.979 5.36461 14.503 4.76457 13.903C4.16453 13.303 3.68855 12.5906 3.36381 11.8066C3.03908 11.0226 2.87193 10.1824 2.87193 9.33379C2.87193 8.4852 3.03908 7.64493 3.36381 6.86094C3.68855 6.07696 4.16453 5.36461 4.76457 4.76457C5.36461 4.16453 6.07696 3.68855 6.86094 3.36381C7.64493 3.03908 8.4852 2.87193 9.33379 2.87193ZM9.33379 18.6676C11.8093 18.6676 14.1833 17.6842 15.9338 15.9338C17.6842 14.1833 18.6676 11.8093 18.6676 9.33379C18.6676 6.85831 17.6842 4.48423 15.9338 2.7338C14.1833 0.983378 11.8093 0 9.33379 0C6.85831 0 4.48423 0.983378 2.7338 2.7338C0.983378 4.48423 0 6.85831 0 9.33379C0 11.8093 0.983378 14.1833 2.7338 15.9338C4.48423 17.6842 6.85831 18.6676 9.33379 18.6676Z" fill="#665F5F"/>
<path d="M14.8398 16.8726L20.5254 22.5537C21.0863 23.1146 21.9972 23.1146 22.5582 22.5537C23.1191 21.9928 23.1191 21.0818 22.5582 20.5209L16.8726 14.8398C16.3027 15.6162 15.6162 16.3027 14.8398 16.8726Z" fill="#665F5F"/>
</svg>
