<svg width="34" height="30" viewBox="0 0 34 30" fill="none" xmlns="http://www.w3.org/2000/svg">
<path opacity="0.4" d="M3.77778 1.875C1.6941 1.875 0 3.55664 0 5.625V7.5H34V5.625C34 3.55664 32.3059 1.875 30.2222 1.875H3.77778ZM34 13.125H0V24.375C0 26.4434 1.6941 28.125 3.77778 28.125H30.2222C32.3059 28.125 34 26.4434 34 24.375V13.125ZM6.61111 20.625H10.3889C10.9083 20.625 11.3333 21.0469 11.3333 21.5625C11.3333 22.0781 10.9083 22.5 10.3889 22.5H6.61111C6.09167 22.5 5.66667 22.0781 5.66667 21.5625C5.66667 21.0469 6.09167 20.625 6.61111 20.625ZM13.2222 21.5625C13.2222 21.0469 13.6472 20.625 14.1667 20.625H21.7222C22.2417 20.625 22.6667 21.0469 22.6667 21.5625C22.6667 22.0781 22.2417 22.5 21.7222 22.5H14.1667C13.6472 22.5 13.2222 22.0781 13.2222 21.5625Z" fill="black"/>
<path d="M34 13.125H0V7.5H34V13.125Z" fill="black"/>
</svg>
