<svg width="26" height="24" viewBox="0 0 26 24" fill="none" xmlns="http://www.w3.org/2000/svg">
<path d="M25.8605 9.09107C26.6179 13.6875 24.2412 18.0857 19.9476 20.2393C20.6266 22.0661 19.2999 24 17.4247 24C16.7332 23.9996 16.0681 23.7271 15.5667 23.2387C15.0652 22.7504 14.7655 22.0833 14.7294 21.375C14.3951 21.3857 11.376 21.375 10.744 21.3429C10.7141 22.0767 10.4013 22.7683 9.87429 23.2656C9.34729 23.7629 8.64928 24.0251 7.93378 23.9946C6.16304 23.9196 4.9042 22.1304 5.47878 20.3571C3.53567 19.6554 1.69181 18.4875 0.276267 16.5643C-0.402775 15.6375 0.25015 14.325 1.36274 14.325C3.78117 14.325 3.04467 11.4214 3.61925 8.41607C4.58035 3.38571 9.71496 0 14.6772 0C20.0312 0 24.9777 3.7875 25.8605 9.09107ZM19.138 19.0875C21.3318 18.0589 23.3846 16.05 24.1681 13.6179C26.2836 7.02322 20.8147 1.40357 14.6772 1.40357C10.3156 1.40357 5.78173 4.37143 4.95644 8.68929C4.46021 11.3089 5.21761 15.7286 1.36274 15.7286C2.66859 17.4964 4.4132 18.5411 6.26229 19.1518C7.55247 17.9839 9.60004 18.3214 10.4306 19.9179C11.1723 19.9714 14.5675 19.9821 15.0219 19.9607C15.2058 19.5927 15.4677 19.2715 15.7883 19.0208C16.109 18.7702 16.4804 18.5963 16.8751 18.512C17.2699 18.4278 17.678 18.4353 18.0696 18.5339C18.4612 18.6326 18.8262 18.8199 19.138 19.0821V19.0875ZM10.3418 8.30893C10.3418 6.45 12.9953 6.44464 12.9953 8.30893C12.9953 10.1732 10.3418 10.1679 10.3418 8.30893ZM16.4323 8.30893C16.4323 6.45 19.091 6.44464 19.091 8.30893C19.091 10.1732 16.4323 10.1732 16.4323 8.30893ZM10.0284 12.0964C9.85077 11.1911 11.188 10.9071 11.3656 11.8179L11.3708 11.8339C11.5849 12.9804 12.9326 14.1911 14.719 14.1429C16.5837 14.0946 17.8165 12.9536 18.0672 11.85C18.3022 10.9875 19.5611 11.2929 19.3991 12.1714C19.1275 13.3607 17.7694 15.4929 14.6197 15.5411C12.3946 15.5411 10.394 14.0518 10.0284 12.0964Z" fill="white"/>
</svg>
