<svg width="133" height="117" viewBox="0 0 133 117" fill="none" xmlns="http://www.w3.org/2000/svg">
<path opacity="0.4" d="M96.0556 116.144V46.2728C96.8637 44.6796 97.6026 43.0864 98.2722 41.5162C98.3877 41.2392 98.5031 40.939 98.6186 40.6619L125.403 29.948C129.052 28.4933 133 31.1718 133 35.0971V97.6256C133 99.8885 131.615 101.92 129.513 102.775L96.0556 116.144ZM3.48663 43.248L31.7953 31.9338C32.3495 35.1895 33.4578 38.4683 34.7509 41.5162C35.4205 43.0864 36.1594 44.6796 36.9675 46.2728V104.322L7.5967 116.075C3.94844 117.529 0 114.851 0 110.926V48.3971C0 46.1343 1.38542 44.1023 3.48663 43.248ZM88.6667 58.8801V116.444L44.3333 103.768V58.8801C49.0668 66.1074 54.1005 72.6419 57.3101 76.6596C62.0436 82.5708 70.9564 82.5708 75.6899 76.6596C78.8995 72.6419 83.9332 66.1074 88.6667 58.8801Z" fill="#E74C3C"/>
<path d="M94.4167 27.7083C94.4167 40.3156 77.5377 62.7825 70.1257 72.0417C68.3477 74.2583 65.0458 74.2583 63.291 72.0417C55.879 62.7825 39 40.3156 39 27.7083C39 12.3995 51.3995 0 66.7083 0C82.0172 0 94.4167 12.3995 94.4167 27.7083Z" fill="#E74C3C"/>
</svg>
