<svg width="28" height="32" viewBox="0 0 28 32" fill="none" xmlns="http://www.w3.org/2000/svg">
<mask id="mask0_177_7" style="mask-type:luminance" maskUnits="userSpaceOnUse" x="2" y="3" width="25" height="25">
<path d="M27 3H2V28H27V3Z" fill="white"/>
</mask>
<g mask="url(#mask0_177_7)">
<path opacity="0.4" d="M1.98438 9.25V21.75C1.98438 24.3379 4.08399 26.4375 6.67188 26.4375H9.79688C10.6611 26.4375 11.3594 25.7393 11.3594 24.875C11.3594 24.0107 10.6611 23.3125 9.79688 23.3125H6.67188C5.80762 23.3125 5.10938 22.6143 5.10938 21.75V9.25C5.10938 8.38574 5.80762 7.6875 6.67188 7.6875H9.79688C10.6611 7.6875 11.3594 6.98926 11.3594 6.125C11.3594 5.26074 10.6611 4.5625 9.79688 4.5625H6.67188C4.08399 4.5625 1.98438 6.66211 1.98438 9.25Z" fill="black"/>
<path d="M26.4336 14.167L20.4424 8.1709C20.1299 7.8584 19.7099 7.6875 19.2705 7.6875C18.3574 7.6875 17.6153 8.42969 17.6153 9.34277V12.375H11.3653C10.501 12.375 9.80273 13.0732 9.80273 13.9375V17.0625C9.80273 17.9268 10.501 18.625 11.3653 18.625H17.6153V21.6573C17.6153 22.5703 18.3574 23.3125 19.2705 23.3125C19.7099 23.3125 20.1299 23.1367 20.4424 22.8291L26.4336 16.833C26.7852 16.4814 26.9853 15.998 26.9853 15.5C26.9853 15.002 26.7852 14.5185 26.4336 14.167Z" fill="black"/>
</g>
</svg>
