<svg width="40" height="46" viewBox="0 0 40 46" fill="none" xmlns="http://www.w3.org/2000/svg">
<path opacity="0.4" d="M8.57227 11.5C8.57227 8.45001 9.77634 5.52494 11.9196 3.36827C14.0629 1.2116 16.9698 0 20.0008 0C23.0319 0 25.9388 1.2116 28.0821 3.36827C30.2253 5.52494 31.4294 8.45001 31.4294 11.5C31.4294 14.55 30.2253 17.4751 28.0821 19.6317C25.9388 21.7884 23.0319 23 20.0008 23C16.9698 23 14.0629 21.7884 11.9196 19.6317C9.77634 17.4751 8.57227 14.55 8.57227 11.5Z" fill="#665F5F"/>
<path d="M0 43.3316C0 34.482 7.125 27.3125 15.9196 27.3125H24.0804C32.875 27.3125 40 34.482 40 43.3316C40 44.8051 38.8125 46 37.3482 46H2.65179C1.1875 46 0 44.8051 0 43.3316Z" fill="#665F5F"/>
</svg>
