<svg width="54" height="54" viewBox="0 0 54 54" fill="none" xmlns="http://www.w3.org/2000/svg">
<path d="M28.4133 0.305859C27.9703 0.105469 27.4957 0 27 0C26.5043 0 26.0297 0.105469 25.5867 0.305859L5.72695 8.73281C3.40664 9.71367 1.67695 12.0023 1.6875 14.7656C1.74023 25.2281 6.04336 44.3707 24.2156 53.0719C25.977 53.9156 28.023 53.9156 29.7844 53.0719C47.9566 44.3707 52.2598 25.2281 52.3125 14.7656C52.323 12.0023 50.5934 9.71367 48.2731 8.73281L28.4133 0.305859ZM38.918 22.043L25.418 35.543C24.4266 36.5344 22.8234 36.5344 21.8426 35.543L15.0926 28.793C14.1012 27.8016 14.1012 26.1984 15.0926 25.2176C16.084 24.2367 17.6871 24.2262 18.668 25.2176L23.625 30.1746L35.332 18.457C36.3234 17.4656 37.9266 17.4656 38.9074 18.457C39.8883 19.4484 39.8988 21.0516 38.9074 22.0324L38.918 22.043Z" fill="#8EDC73"/>
</svg>
