<svg width="512" height="512" viewBox="0 0 512 512" fill="none" xmlns="http://www.w3.org/2000/svg">
<path opacity="0.4" d="M0 160C0 107 43 64 96 64H192C209.7 64 224 78.3 224 96C224 113.7 209.7 128 192 128H96C78.3 128 64 142.3 64 160V416C64 433.7 78.3 448 96 448H352C369.7 448 384 433.7 384 416V320C384 302.3 398.3 288 416 288C433.7 288 448 302.3 448 320V416C448 469 405 512 352 512H96C43 512 0 469 0 416V160Z" fill="#3D4654"/>
<path d="M392.4 21.6999L362.3 51.6999L460.2 149.6L490.3 119.5C512.2 97.5999 512.2 62.1999 490.3 40.2999L471.6 21.6999C449.7 -0.200098 414.3 -0.200098 392.4 21.6999ZM339.7 74.2999L172.4 241.7C166.3 247.8 161.6 255.3 158.9 263.6L129.3 352.4C126.4 361 128.7 370.5 135.1 377C141.5 383.5 151 385.7 159.7 382.8L248.5 353.2C256.7 350.5 264.2 345.8 270.4 339.7L437.7 172.3L339.7 74.2999Z" fill="#3D4654"/>
</svg>
