<svg width="448" height="512" viewBox="0 0 448 512" fill="none" xmlns="http://www.w3.org/2000/svg">
<path opacity="0.4" d="M96 304C96 325.217 104.429 345.566 119.431 360.569C134.434 375.571 154.783 384 176 384C197.217 384 217.566 375.571 232.569 360.569C247.571 345.566 256 325.217 256 304C256 282.783 247.571 262.434 232.569 247.431C217.566 232.429 197.217 224 176 224C154.783 224 134.434 232.429 119.431 247.431C104.429 262.434 96 282.783 96 304Z" fill="#54A0FF"/>
<path d="M289.8 46.8C293.5 37.8 302.3 32 312 32H424C437.3 32 448 42.7 448 56V168C448 177.7 442.2 186.5 433.2 190.2C424.2 193.9 413.9 191.9 407 185L373.6 151.6L321 204.2C340.5 232.6 352 266.9 352 304C352 401.2 273.2 480 176 480C78.8 480 0 401.2 0 304C0 206.8 78.8 128 176 128C213 128 247.4 139.4 275.8 159L328.4 106.4L295 73C288.1 66.1 286.1 55.8 289.8 46.8ZM176 416C190.708 416 205.272 413.103 218.861 407.475C232.449 401.846 244.796 393.596 255.196 383.196C265.596 372.796 273.846 360.449 279.475 346.861C285.103 333.272 288 318.708 288 304C288 289.292 285.103 274.728 279.475 261.139C273.846 247.551 265.596 235.204 255.196 224.804C244.796 214.404 232.449 206.154 218.861 200.525C205.272 194.897 190.708 192 176 192C161.292 192 146.728 194.897 133.139 200.525C119.551 206.154 107.204 214.404 96.804 224.804C86.4039 235.204 78.154 247.551 72.5255 261.139C66.897 274.728 64 289.292 64 304C64 318.708 66.897 333.272 72.5255 346.861C78.154 360.449 86.4039 372.796 96.804 383.196C107.204 393.596 119.551 401.846 133.139 407.475C146.728 413.103 161.292 416 176 416Z" fill="#54A0FF"/>
</svg>
