<svg width="22" height="31" viewBox="0 0 22 31" fill="none" xmlns="http://www.w3.org/2000/svg">
<path d="M11.2196 16.0836C10.1949 17.1533 9.84181 18.5151 9.55313 20.0727C9.42551 20.8188 9.3933 21.6289 9.36108 22.4076C9.32887 23.1211 8.977 23.5425 8.3364 23.6403C7.79122 23.7055 6.70214 22.9593 6.51009 22.4402C6.35025 22.4728 5.1645 24.5155 6.41344 28.245C6.79753 29.3472 7.6946 30.0282 8.72049 30.5147C8.84811 30.5799 8.94475 30.7417 9.04139 30.8708C8.88156 30.9034 8.72049 31 8.59285 31C3.94761 30.2539 0.550503 27.174 0.070912 22.3423C-0.3454 18.1263 1.09559 14.2679 3.75571 11.0576C5.06906 9.46881 6.35146 8.04176 7.37611 6.25863C8.20874 4.79897 8.88153 3.30797 9.10578 1.62143C9.13799 1.2327 9.2334 0.161764 9.26562 0C9.42545 0.0652065 11.7003 2.46412 12.4375 3.76209C14.0718 6.71275 14.4237 8.43203 14.3915 11.7713C14.3915 11.9657 14.3593 12.1927 14.3915 12.3871C14.4237 13.3276 15.032 14.5276 16.25 14.6568C17.1471 14.7546 17.9165 14.3646 18.2362 13.4893C18.6525 12.3871 18.8767 10.8309 18.9412 10.7004C21.6001 14.8513 23.17 20.266 20.9273 25.292C19.614 28.21 17.0183 30.091 13.9108 30.8698C13.8154 30.9024 13.7187 30.935 13.6221 30.935C13.5254 30.9024 13.43 30.8372 13.3012 30.8058C13.3656 30.708 13.3978 30.6114 13.461 30.5136C13.4932 30.481 13.5254 30.481 13.5577 30.4484C15.5438 29.5405 16.3132 27.563 16.1534 25.5191C16.0258 23.9303 15.384 22.601 14.4237 21.3682C13.7187 20.4929 12.725 19.585 12.1489 18.6119C11.7326 17.8019 11.5083 16.9263 11.2196 16.0836Z" fill="white"/>
</svg>
