<svg width="28" height="32" viewBox="0 0 28 32" fill="none" xmlns="http://www.w3.org/2000/svg">
<path opacity="0.4" d="M0 11.7322H27.375V28.3527C27.375 29.972 26.0612 31.2857 24.442 31.2857H2.93304C1.31376 31.2857 0 29.972 0 28.3527V11.7322ZM3.91071 16.6206V18.5759C3.91071 19.1137 4.35067 19.5536 4.88839 19.5536H6.84375C7.38147 19.5536 7.82143 19.1137 7.82143 18.5759V16.6206C7.82143 16.0828 7.38147 15.6429 6.84375 15.6429H4.88839C4.35067 15.6429 3.91071 16.0828 3.91071 16.6206ZM12.7098 15.6429C12.1721 15.6429 11.7321 16.0828 11.7321 16.6206V18.5759C11.7321 19.1137 12.1721 19.5536 12.7098 19.5536H14.6652C15.2029 19.5536 15.6429 19.1137 15.6429 18.5759V16.6206C15.6429 16.0828 15.2029 15.6429 14.6652 15.6429H12.7098ZM19.5536 16.6206V18.5759C19.5536 19.1137 19.9935 19.5536 20.5312 19.5536H22.4866C23.0243 19.5536 23.4643 19.1137 23.4643 18.5759V16.6206C23.4643 16.0828 23.0243 15.6429 22.4866 15.6429H20.5312C19.9935 15.6429 19.5536 16.0828 19.5536 16.6206ZM4.88839 23.4643C4.35067 23.4643 3.91071 23.9043 3.91071 24.442V26.3974C3.91071 26.9351 4.35067 27.375 4.88839 27.375H6.84375C7.38147 27.375 7.82143 26.9351 7.82143 26.3974V24.442C7.82143 23.9043 7.38147 23.4643 6.84375 23.4643H4.88839ZM11.7321 24.442V26.3974C11.7321 26.9351 12.1721 27.375 12.7098 27.375H14.6652C15.2029 27.375 15.6429 26.9351 15.6429 26.3974V24.442C15.6429 23.9043 15.2029 23.4643 14.6652 23.4643H12.7098C12.1721 23.4643 11.7321 23.9043 11.7321 24.442ZM20.5312 23.4643C19.9935 23.4643 19.5536 23.9043 19.5536 24.442V26.3974C19.5536 26.9351 19.9935 27.375 20.5312 27.375H22.4866C23.0243 27.375 23.4643 26.9351 23.4643 26.3974V24.442C23.4643 23.9043 23.0243 23.4643 22.4866 23.4643H20.5312Z" fill="white"/>
<path d="M9.77679 1.95536C9.77679 0.8738 8.90299 0 7.82143 0C6.73987 0 5.86607 0.8738 5.86607 1.95536V3.91071H2.93304C1.31376 3.91071 0 5.22447 0 6.84375V11.7321H27.375V6.84375C27.375 5.22447 26.0612 3.91071 24.442 3.91071H21.5089V1.95536C21.5089 0.8738 20.6351 0 19.5536 0C18.472 0 17.5982 0.8738 17.5982 1.95536V3.91071H9.77679V1.95536Z" fill="white"/>
</svg>
