<svg width="512" height="512" viewBox="0 0 512 512" fill="none" xmlns="http://www.w3.org/2000/svg">
<path opacity="0.4" d="M0 128C0 92.7 28.7 64 64 64H160H192L242.5 38.8C251.4 34.4 261.2 32 271.1 32H448C483.3 32 512 60.7 512 96V160H256H0V128Z" fill="#3D4654"/>
<path d="M64 48C64 39.2 71.2 32 80 32H144C152.8 32 160 39.2 160 48V64H64V48ZM0 416V160H512V416C512 451.3 483.3 480 448 480H64C28.7 480 0 451.3 0 416ZM256 400C268.607 400 281.09 397.517 292.738 392.692C304.385 387.868 314.968 380.797 323.882 371.882C332.797 362.968 339.868 352.385 344.692 340.738C349.517 329.09 352 316.607 352 304C352 291.393 349.517 278.91 344.692 267.262C339.868 255.615 332.797 245.032 323.882 236.118C314.968 227.203 304.385 220.132 292.738 215.308C281.09 210.483 268.607 208 256 208C243.393 208 230.91 210.483 219.262 215.308C207.615 220.132 197.032 227.203 188.118 236.118C179.203 245.032 172.132 255.615 167.308 267.262C162.483 278.91 160 291.393 160 304C160 316.607 162.483 329.09 167.308 340.738C172.132 352.385 179.203 362.968 188.118 371.882C197.032 380.797 207.615 387.868 219.262 392.692C230.91 397.517 243.393 400 256 400Z" fill="#3D4654"/>
</svg>
