<svg width="384" height="512" viewBox="0 0 384 512" fill="none" xmlns="http://www.w3.org/2000/svg">
<path opacity="0.4" d="M112 176C112 197.217 120.429 217.566 135.431 232.569C150.434 247.571 170.783 256 192 256C213.217 256 233.566 247.571 248.569 232.569C263.571 217.566 272 197.217 272 176C272 154.783 263.571 134.434 248.569 119.431C233.566 104.429 213.217 96 192 96C170.783 96 150.434 104.429 135.431 119.431C120.429 134.434 112 154.783 112 176Z" fill="#F368E0"/>
<path d="M80 176C80 161.292 82.897 146.728 88.5255 133.139C94.154 119.551 102.404 107.204 112.804 96.804C123.204 86.4039 135.551 78.154 149.139 72.5255C162.728 66.897 177.292 64 192 64C206.708 64 221.272 66.897 234.861 72.5255C248.449 78.154 260.796 86.4039 271.196 96.804C281.596 107.204 289.846 119.551 295.475 133.139C301.103 146.728 304 161.292 304 176C304 190.708 301.103 205.272 295.475 218.861C289.846 232.449 281.596 244.796 271.196 255.196C260.796 265.596 248.449 273.846 234.861 279.475C221.272 285.103 206.708 288 192 288C177.292 288 162.728 285.103 149.139 279.475C135.551 273.846 123.204 265.596 112.804 255.196C102.404 244.796 94.154 232.449 88.5255 218.861C82.897 205.272 80 190.708 80 176ZM224 349.1C305.9 334.1 368 262.3 368 176C368 78.8 289.2 0 192 0C94.8 0 16 78.8 16 176C16 262.3 78.1 334.1 160 349.1V384H128H96V448H128H160V480V512H224V480V448H256H288V384H256H224V349.1Z" fill="#F368E0"/>
</svg>
