<svg width="186" height="186" viewBox="0 0 186 186" fill="none" xmlns="http://www.w3.org/2000/svg">
<g clip-path="url(#clip0_294_53)">
<path d="M186 0H0V186H186V0Z" fill="#B7BCC2"/>
<g clip-path="url(#clip1_294_53)">
<path d="M57 138C57 128.452 60.7928 119.295 67.5442 112.544C74.2955 105.793 83.4522 102 93 102C102.548 102 111.705 105.793 118.456 112.544C125.207 119.295 129 128.452 129 138H120C120 130.839 117.155 123.972 112.092 118.908C107.028 113.845 100.161 111 93 111C85.8392 111 78.9716 113.845 73.9081 118.908C68.8446 123.972 66 130.839 66 138H57ZM93 97.5C78.0825 97.5 66 85.4175 66 70.5C66 55.5825 78.0825 43.5 93 43.5C107.918 43.5 120 55.5825 120 70.5C120 85.4175 107.918 97.5 93 97.5ZM93 88.5C102.945 88.5 111 80.445 111 70.5C111 60.555 102.945 52.5 93 52.5C83.055 52.5 75 60.555 75 70.5C75 80.445 83.055 88.5 93 88.5Z" fill="white"/>
</g>
</g>
<defs>
<clipPath id="clip0_294_53">
<rect width="186" height="186" fill="white"/>
</clipPath>
<clipPath id="clip1_294_53">
<rect width="108" height="108" fill="white" transform="translate(39 39)"/>
</clipPath>
</defs>
</svg>
