<svg width="186" height="186" viewBox="0 0 186 186" fill="none" xmlns="http://www.w3.org/2000/svg">
<rect width="186" height="186" fill="#B7BCC2"/>
<path opacity="0.4" d="M75.071 75.2855C75.071 70.6632 76.9073 66.2301 80.1758 62.9616C83.4442 59.6932 87.8773 57.8569 92.4996 57.8569C97.122 57.8569 101.555 59.6932 104.823 62.9616C108.092 66.2301 109.928 70.6632 109.928 75.2855C109.928 79.9079 108.092 84.3409 104.823 87.6094C101.555 90.8779 97.122 92.7141 92.4996 92.7141C87.8773 92.7141 83.4442 90.8779 80.1758 87.6094C76.9073 84.3409 75.071 79.9079 75.071 75.2855Z" fill="#F5F5F5"/>
<path d="M62 123.527C62 110.115 72.8656 99.2498 86.2775 99.2498H98.7225C112.134 99.2498 123 110.115 123 123.527C123 125.76 121.189 127.571 118.956 127.571H66.044C63.8109 127.571 62 125.76 62 123.527Z" fill="#F5F5F5"/>
</svg>
