<svg width="230" height="62" viewBox="0 0 230 62" fill="none" xmlns="http://www.w3.org/2000/svg">
<g clip-path="url(#clip0_294_2)">
<mask id="mask0_294_2" style="mask-type:luminance" maskUnits="userSpaceOnUse" x="0" y="0" width="230" height="62">
<path d="M230 0H0V62H230V0Z" fill="white"/>
</mask>
<g mask="url(#mask0_294_2)">
<path d="M22.9492 32.1672C20.8533 34.3065 20.131 37.0302 19.5405 40.1453C19.2795 41.6376 19.2136 43.2578 19.1477 44.8152C19.0818 46.2423 18.362 47.085 17.0517 47.2806C15.9366 47.411 13.7089 45.9187 13.3161 44.8804C12.9892 44.9456 10.5638 49.0311 13.1184 56.4899C13.904 58.6945 15.739 60.0563 17.8374 61.0294C18.0984 61.1598 18.2961 61.4833 18.4938 61.7417C18.1668 61.8069 17.8374 62 17.5763 62C8.07465 60.5078 1.12603 54.3481 0.145047 44.6846C-0.706499 36.2525 2.24099 28.5358 7.68213 22.1153C10.3685 18.9376 12.9916 16.0835 15.0875 12.5173C16.7906 9.59793 18.1668 6.61593 18.6255 3.24286C18.6914 2.46541 18.8865 0.323529 18.9524 0C19.2793 0.130413 23.9324 4.92824 25.4404 7.52418C28.7832 13.4255 29.5029 16.8641 29.4371 23.5427C29.4371 23.9314 29.3712 24.3854 29.4371 24.7741C29.503 26.6551 30.7473 29.0553 33.2387 29.3136C35.0735 29.5092 36.6474 28.7292 37.3012 26.9787C38.1528 24.7741 38.6115 21.6617 38.7433 21.4009C44.1821 29.7025 47.3931 40.532 42.8059 50.5839C40.1195 56.42 34.8101 60.1819 28.4538 61.7395C28.2587 61.8047 28.061 61.8699 27.8633 61.8699C27.6657 61.8047 27.4705 61.6743 27.2069 61.6116C27.3387 61.416 27.4046 61.2229 27.5339 61.0272C27.5998 60.962 27.6657 60.962 27.7316 60.8968C31.7941 59.0811 33.368 55.1259 33.0411 51.0382C32.78 47.8605 31.4672 45.2021 29.5031 42.7365C28.061 40.9859 26.0285 39.1701 24.85 37.2239C23.9984 35.6038 23.5398 33.8526 22.9492 32.1672Z" fill="#E74C3C"/>
<path d="M82.5877 48.2613C80.7579 48.2613 79.1332 48.072 77.7135 47.6934C76.2939 47.2833 75.0635 46.7312 74.0224 46.0372C72.9813 45.3116 72.1295 44.5229 71.467 43.671C70.8045 42.7877 70.3155 41.857 70 40.879L73.8331 39.554C74.3063 40.9421 75.2528 42.1567 76.6724 43.1978C78.1237 44.2074 79.8904 44.7121 81.9725 44.7121C84.5279 44.7121 86.5312 44.2074 87.9825 43.1978C89.4337 42.1883 90.1593 40.8475 90.1593 39.1754C90.1593 37.6296 89.5125 36.3834 88.2191 35.437C86.9256 34.459 85.222 33.7018 83.1083 33.1655L79.4645 32.2191C77.9817 31.8405 76.6093 31.2884 75.3474 30.5628C74.117 29.8056 73.1233 28.8592 72.3661 27.7235C71.6405 26.5562 71.2777 25.168 71.2777 23.5591C71.2777 20.562 72.2399 18.2275 74.1644 16.5554C76.1203 14.8518 78.9281 14 82.5877 14C84.7645 14 86.6417 14.3628 88.2191 15.0884C89.7965 15.7825 91.0742 16.6816 92.0522 17.7858C93.0617 18.8584 93.7715 20.0257 94.1817 21.2876L90.3959 22.6126C89.7965 21.0352 88.7869 19.8049 87.3673 18.9215C85.9476 18.0066 84.2282 17.5492 82.2091 17.5492C80.0954 17.5492 78.4076 18.0697 77.1457 19.1108C75.9153 20.1203 75.3001 21.5085 75.3001 23.2752C75.3001 24.7895 75.7891 25.9568 76.7671 26.777C77.7451 27.5657 79.0228 28.1494 80.6002 28.5279L84.244 29.4271C87.4619 30.1842 89.9227 31.4461 91.6263 33.2128C93.3614 34.948 94.229 36.8251 94.229 38.8442C94.229 40.5793 93.7873 42.1725 92.904 43.6237C92.0206 45.0434 90.7114 46.1791 88.9762 47.0309C87.2726 47.8512 85.1431 48.2613 82.5877 48.2613Z" fill="#0B0B0B"/>
<path d="M143.332 47.7315L156.109 29.5598L166.615 14.606H171.394L158.806 32.0205L148.159 47.7315H143.332ZM166.615 47.7315L155.967 32.0205L143.379 14.606H148.159L158.664 29.5125L171.441 47.7315H166.615Z" fill="#0B0B0B"/>
<path d="M176.664 47.1256V14H196.35V17.6438H180.686V28.9538H194.505V32.5976H180.686V47.1256H176.664Z" fill="#0B0B0B"/>
<path d="M217.318 33.3548L213.864 31.6985L224.653 14H229.244L217.318 33.3548ZM213.391 47.1256V31.2253H217.366V47.1256H213.391ZM213.438 33.3548L201.513 14H206.15L216.892 31.6985L213.438 33.3548Z" fill="#0B0B0B"/>
<path fill-rule="evenodd" clip-rule="evenodd" d="M99.6964 44.3023V47.9386H103.333H137.877V44.3023H103.333V32.7874H137.877V29.1511H103.333V18.2423H137.877V14.6061H103.333L99.6964 14.606L99.6963 18.2423L99.6964 29.1511V32.7874V44.3023Z" fill="#0B0B0B"/>
</g>
</g>
<defs>
<clipPath id="clip0_294_2">
<rect width="230" height="62" fill="white"/>
</clipPath>
</defs>
</svg>
